<svg width="60" height="63" viewBox="0 0 60 63" fill="none" xmlns="http://www.w3.org/2000/svg">
<path d="M60 32.3317C60 48.8744 46.5419 62.3325 30.0008 62.3325C13.4598 62.3325 0 48.8744 0 32.3317C0 32.2438 0.0309272 32.169 0.092781 32.1055C0.156263 32.0436 0.231138 32.0127 0.319036 32.0127H59.6793C59.7672 32.0127 59.8437 32.0436 59.9056 32.1055C59.9691 32.169 60 32.2438 60 32.3317ZM0 30.0008C0 13.4581 13.4581 0 29.9992 0C46.5402 0 60 13.4581 60 30.0008C60 30.0887 59.9691 30.1636 59.9056 30.2271C59.8437 30.2889 59.7672 30.3198 59.6793 30.3198H0.319036C0.231138 30.3198 0.156263 30.2889 0.092781 30.2271C0.0309272 30.1636 0 30.0887 0 30.0008ZM57.5307 29.6801H59.3587C59.3245 26.2798 58.7157 22.9853 57.5307 19.7965V29.6801ZM52.0925 29.6801H56.891V18.2193C55.6767 15.4602 54.0783 12.9454 52.0925 10.678V29.6801ZM46.6526 29.6801H51.4528V9.97314C50.0008 8.41865 48.4024 7.03833 46.6526 5.82892V29.6801ZM41.2143 29.6801H46.0129V5.39757C44.4926 4.40465 42.8925 3.55986 41.2143 2.86319V29.6801ZM35.776 29.6801H40.5746V2.60601C39.0152 2.00212 37.4152 1.53658 35.776 1.20941V29.6801ZM30.3361 29.6801H35.1347V1.08733C33.5477 0.807357 31.9476 0.659233 30.3361 0.644584V29.6801ZM0.6397 29.6801H29.6785V0.6397C13.7446 0.815496 0.812241 13.7446 0.6397 29.6801Z" fill="#111111"/>
</svg>
