<svg width="60" height="52" viewBox="0 0 60 52" fill="none" xmlns="http://www.w3.org/2000/svg">
<path d="M59.9922 26.0211V26.0055C59.9969 25.9852 60 25.9648 60 25.943C60 25.9227 59.9969 25.9023 59.9922 25.882C59.9922 25.882 59.9922 25.8711 59.9922 25.8664C59.9875 25.8508 59.9813 25.8367 59.975 25.8227C59.975 25.8195 59.975 25.8148 59.975 25.8117L45.0984 0.121094V0.113281C45.0906 0.0992186 45.0797 0.0867186 45.0688 0.0757814C45.0656 0.0710938 45.0625 0.0664062 45.0578 0.0632814C45.0422 0.0492186 45.025 0.0351562 45.0078 0.0257814C44.9859 0.0148438 44.9641 0.0070315 44.9406 0.0023439C44.9359 0.0007815 44.9313 0.0007815 44.925 0.0023439C44.9094 -0.0007813 44.8937 -0.0007813 44.8781 0.0023439H15.1172C15.1 -0.0007813 15.0844 -0.0007813 15.0688 0.0023439C15.0641 0.0007815 15.0578 0.0007815 15.0531 0.0023439C15.0328 0.0070315 15.0141 0.0148438 14.9953 0.0257814C14.9766 0.0351562 14.9609 0.0492186 14.9453 0.0632814C14.9406 0.067969 14.9375 0.0710938 14.9328 0.0757814C14.9219 0.0867186 14.9125 0.100781 14.9047 0.113281V0.121094L0.0265625 25.8117C0.0265625 25.8148 0.0265625 25.8195 0.0265625 25.8227C0.0187497 25.8367 0.0125002 25.8508 0.009375 25.8664C0.009375 25.8664 0.009375 25.8758 0.009375 25.882C0.003125 25.9023 0 25.9227 0 25.943C0 25.9648 0.003125 25.9852 0.009375 26.0055V26.0211C0.0125002 26.0367 0.0187497 26.0523 0.0265625 26.0664C0.0265625 26.0664 0.0265625 26.0727 0.0265625 26.0758L14.8969 51.7664V51.7758C14.9062 51.7883 14.9156 51.8008 14.9266 51.8133L14.9391 51.8258C14.9531 51.8398 14.9703 51.8523 14.9891 51.8633C15.0078 51.8727 15.0266 51.8805 15.0469 51.8867C15.0703 51.893 15.0922 51.8961 15.1156 51.8961H44.8625C44.8859 51.8961 44.9078 51.893 44.9313 51.8867C44.9516 51.8805 44.9703 51.8727 44.9891 51.8633C45.0078 51.8523 45.0234 51.8398 45.0391 51.8258L45.05 51.8133C45.0609 51.8008 45.0703 51.7883 45.0797 51.7758V51.7664L59.9703 26.0758C59.9703 26.0758 59.9703 26.0695 59.9703 26.0664C59.9797 26.0523 59.9859 26.0367 59.9922 26.0211ZM44.8703 51.1086L30.4594 26.207H59.2797L44.8703 51.1086ZM15.1281 0.780469L29.5375 25.6805H0.714063L15.1281 0.780469ZM30.0016 25.4164L15.5922 0.517969H44.4125L30.0016 25.4164ZM30.0016 26.4711L44.4125 51.3711H15.5922L30.0016 26.4711ZM30.4609 25.6805L31.2375 24.3383C31.2406 24.3539 31.2437 24.3695 31.25 24.3852C31.2828 24.4617 31.3422 24.5008 31.4266 24.5008C31.5094 24.5008 31.5688 24.4617 31.6016 24.3852C31.6109 24.3617 31.6156 24.3367 31.6156 24.3117C31.6156 24.2727 31.6047 24.2383 31.5828 24.2055C31.5453 24.1492 31.4937 24.1211 31.4266 24.1211C31.4 24.1211 31.3766 24.1273 31.3531 24.1367L33.3359 20.7086C33.3453 20.7102 33.3531 20.7102 33.3625 20.7086C33.4062 20.6992 33.4437 20.6773 33.4719 20.643C33.5 20.6086 33.5141 20.568 33.5141 20.5227C33.5141 20.4945 33.5063 20.4664 33.4938 20.4414L36.0953 15.9461C36.1219 15.9586 36.15 15.9648 36.1797 15.9664C36.2328 15.9664 36.2781 15.9477 36.3141 15.9102C36.3516 15.8727 36.3703 15.8289 36.3703 15.7758C36.3703 15.7086 36.3422 15.6555 36.2859 15.618L38.8797 11.1352C38.9172 11.1898 38.9688 11.2164 39.0359 11.2164C39.0859 11.2148 39.1281 11.1961 39.1625 11.1617C39.1984 11.1258 39.2172 11.0836 39.2188 11.0336C39.2203 10.9836 39.2062 10.9398 39.1734 10.9023C39.1406 10.8648 39.1 10.843 39.05 10.8383L41.0563 7.37422C41.0953 7.34297 41.1188 7.30234 41.125 7.25078L41.7047 6.25234C41.7047 6.26016 41.7047 6.26797 41.7047 6.27578C41.7047 6.32734 41.7234 6.37266 41.7609 6.41016C41.7984 6.44609 41.8422 6.46484 41.8953 6.46484C41.9484 6.46484 41.9922 6.44609 42.0297 6.41016C42.0672 6.37266 42.0859 6.32734 42.0859 6.27578C42.0859 6.22266 42.0672 6.17891 42.0297 6.14141C41.9922 6.10391 41.9484 6.08516 41.8953 6.08516C41.8531 6.08516 41.8156 6.09766 41.7812 6.12422L43.7828 2.66641H43.7984C43.8781 2.66641 43.9344 2.63203 43.9703 2.56172C44.0047 2.49297 43.9984 2.42578 43.9516 2.36328L44.8703 0.780469L45.7438 2.29141C45.7297 2.28984 45.7141 2.28984 45.7 2.29141C45.6516 2.28984 45.6078 2.30703 45.5719 2.33984C45.5344 2.37266 45.5141 2.41328 45.5094 2.46172C45.5047 2.51016 45.5156 2.55391 45.5453 2.59453C45.575 2.63359 45.6141 2.65703 45.6625 2.66641C45.7109 2.67578 45.7563 2.66797 45.7984 2.64297C45.8391 2.61641 45.8672 2.58047 45.8813 2.53359L48.4953 7.04766H48.4813C48.4047 7.08203 48.3656 7.13984 48.3656 7.22422C48.3656 7.30703 48.4047 7.36641 48.4813 7.39922C48.5047 7.40859 48.5297 7.41328 48.5563 7.41328C48.5938 7.41328 48.6297 7.40234 48.6609 7.38203C48.6688 7.38203 48.675 7.36953 48.6813 7.36484L51.2719 11.8477C51.2156 11.9086 51.2047 11.9773 51.2375 12.0523C51.2703 12.1289 51.3281 12.1664 51.4109 12.1664C51.425 12.1695 51.4391 12.1695 51.4531 12.1664L54.0812 16.7039C54.0719 16.7383 54.075 16.7711 54.0906 16.8039C54.1125 16.8508 54.1469 16.8836 54.1953 16.9039L56.1781 20.3398H56.1656C56.1391 20.3398 56.1156 20.3445 56.0906 20.3555C56.0141 20.3883 55.975 20.4461 55.975 20.5305C55.975 20.6133 56.0141 20.6727 56.0906 20.7055C56.1156 20.7148 56.1391 20.7195 56.1656 20.7195C56.2031 20.7195 56.2391 20.7086 56.2719 20.6883C56.3 20.668 56.3219 20.643 56.3359 20.6133L58.9375 25.107C58.8469 25.1508 58.8125 25.2227 58.8344 25.3211C58.8578 25.418 58.9203 25.468 59.0203 25.4664C59.0594 25.4664 59.0953 25.4555 59.1266 25.4352L59.2781 25.6992L30.4609 25.6805Z" fill="#111111"/>
<path d="M58.075 24.1196C58.0062 24.1212 57.9531 24.1493 57.9156 24.204C57.8781 24.2618 57.8718 24.3212 57.8968 24.3837C57.9296 24.4603 57.989 24.4993 58.0718 24.4993C58.1562 24.4993 58.214 24.4603 58.2484 24.3837C58.2578 24.3603 58.264 24.3353 58.264 24.3103C58.264 24.2712 58.2531 24.2368 58.2312 24.204C58.1937 24.1493 58.1406 24.1212 58.075 24.1196Z" fill="#111111"/>
<path d="M57.1217 23.1726C57.0701 23.1726 57.0248 23.1898 56.9873 23.2273C56.9514 23.2648 56.9326 23.3085 56.9326 23.3617C56.9326 23.4132 56.9498 23.4585 56.9873 23.496C57.0248 23.5335 57.0686 23.5507 57.1217 23.5523C57.1732 23.5523 57.2186 23.5335 57.2561 23.4976C57.2936 23.4601 57.3123 23.4148 57.3123 23.3632C57.3139 23.3101 57.2951 23.2648 57.2576 23.2273C57.2201 23.1914 57.1748 23.1726 57.1217 23.1726Z" fill="#111111"/>
<path d="M56.2767 24.1539C56.2455 24.1336 56.2095 24.1211 56.1705 24.1211C56.1392 24.1211 56.1095 24.1289 56.0814 24.1445C56.0533 24.1602 56.0298 24.1805 56.0127 24.207C55.9955 24.2336 55.9845 24.2617 55.9814 24.293C55.9783 24.3258 55.983 24.3555 55.9955 24.3852C56.0158 24.432 56.0486 24.4664 56.097 24.4867C56.1205 24.4961 56.1455 24.5008 56.1705 24.5008C56.2095 24.5008 56.2439 24.4914 56.2767 24.4695C56.308 24.4477 56.3314 24.4195 56.3455 24.3852C56.3564 24.3617 56.3611 24.3367 56.3611 24.3117C56.3611 24.2727 56.3502 24.2383 56.3283 24.2055C56.3142 24.1852 56.297 24.168 56.2767 24.1539Z" fill="#111111"/>
<path d="M56.2768 22.2555C56.2455 22.2336 56.2096 22.2227 56.1705 22.2227C56.1455 22.2227 56.1205 22.2273 56.0971 22.2383C56.0189 22.2711 55.9814 22.3289 55.9814 22.4133C55.9814 22.4961 56.0189 22.5555 56.0971 22.5883C56.1205 22.5977 56.1455 22.6039 56.1705 22.6039C56.2096 22.6039 56.2455 22.593 56.2768 22.5711C56.3033 22.5523 56.3236 22.5305 56.3393 22.5023C56.3533 22.4742 56.3611 22.4445 56.3611 22.4133C56.3611 22.382 56.3533 22.3523 56.3393 22.3242C56.3236 22.2961 56.3033 22.2727 56.2768 22.2555Z" fill="#111111"/>
<path d="M57.1217 25.071C57.0701 25.071 57.0248 25.0898 56.9873 25.1257C56.9514 25.1632 56.9326 25.2085 56.9326 25.2601C56.9326 25.3132 56.9498 25.357 56.9873 25.3945C57.0248 25.432 57.0686 25.4507 57.1217 25.4507C57.1732 25.4507 57.2186 25.432 57.2561 25.396C57.2936 25.3585 57.3123 25.3148 57.3123 25.2617C57.3139 25.2085 57.2951 25.1648 57.2576 25.1273C57.2201 25.0898 57.1748 25.071 57.1217 25.071Z" fill="#111111"/>
<path d="M53.3156 15.5774C53.2625 15.5774 53.2172 15.5961 53.1813 15.6321C53.1438 15.6696 53.125 15.7149 53.125 15.7665C53.125 15.8196 53.1438 15.8633 53.1813 15.9008C53.2172 15.9383 53.2625 15.9571 53.3156 15.9571C53.3672 15.9571 53.4125 15.9383 53.45 15.9008C53.4875 15.8633 53.5047 15.8196 53.5047 15.7665C53.5047 15.7149 53.4875 15.6696 53.45 15.6321C53.4125 15.5961 53.3672 15.5774 53.3156 15.5774Z" fill="#111111"/>
<path d="M52.3629 16.5259C52.3316 16.5259 52.3019 16.5337 52.2738 16.5493C52.2457 16.5649 52.2238 16.5853 52.205 16.6118C52.1879 16.6384 52.1769 16.6665 52.1738 16.6993C52.1707 16.7306 52.1754 16.7603 52.1879 16.7899C52.2207 16.8665 52.2785 16.9056 52.3629 16.9056C52.4472 16.9056 52.505 16.8665 52.5379 16.7899C52.5488 16.7665 52.5535 16.7415 52.5535 16.7165C52.5535 16.6774 52.5425 16.6431 52.5207 16.6103C52.4832 16.5556 52.4316 16.5274 52.3629 16.5259Z" fill="#111111"/>
<path d="M52.3629 14.6257C52.3113 14.6257 52.266 14.6445 52.2285 14.682C52.1926 14.7195 52.1738 14.7632 52.1738 14.8164C52.1738 14.8679 52.1926 14.9132 52.2285 14.9507C52.266 14.9867 52.3113 15.0054 52.3629 15.0054C52.416 15.0054 52.4613 14.9867 52.4988 14.9507C52.5348 14.9132 52.5535 14.8679 52.5535 14.8164C52.5535 14.7632 52.5348 14.7195 52.4988 14.682C52.4613 14.6445 52.416 14.6257 52.3629 14.6257Z" fill="#111111"/>
<path d="M54.2668 20.3242C54.2137 20.3242 54.1684 20.343 54.1324 20.3789C54.0949 20.4164 54.0762 20.4617 54.0762 20.5133C54.0762 20.5664 54.0949 20.6102 54.1324 20.6477C54.1684 20.6852 54.2137 20.7039 54.2668 20.7039C54.3199 20.7039 54.3637 20.6852 54.4012 20.6477C54.4387 20.6102 54.4574 20.5664 54.4574 20.5133C54.4574 20.4617 54.4387 20.4164 54.4012 20.3789C54.3637 20.343 54.3199 20.3242 54.2668 20.3242Z" fill="#111111"/>
<path d="M54.2668 18.4258C54.2137 18.4258 54.1684 18.443 54.1324 18.4805C54.0949 18.518 54.0762 18.5633 54.0762 18.6148C54.0762 18.668 54.0949 18.7117 54.1324 18.7492C54.1684 18.7867 54.2137 18.8055 54.2668 18.8055C54.3199 18.8055 54.3637 18.7867 54.4012 18.7492C54.4387 18.7117 54.4574 18.668 54.4574 18.6148C54.4574 18.5633 54.4387 18.518 54.4012 18.4805C54.3637 18.443 54.3199 18.4258 54.2668 18.4258Z" fill="#111111"/>
<path d="M53.3156 19.3726C53.2625 19.3726 53.2172 19.3913 53.1813 19.4288C53.1438 19.4663 53.125 19.5101 53.125 19.5632C53.125 19.6147 53.1438 19.6601 53.1813 19.6976C53.2172 19.7335 53.2625 19.7522 53.3156 19.7522C53.3672 19.7522 53.4125 19.7335 53.45 19.6976C53.4875 19.6601 53.5047 19.6147 53.5047 19.5632C53.5047 19.5101 53.4875 19.4663 53.45 19.4288C53.4125 19.3913 53.3672 19.3726 53.3156 19.3726Z" fill="#111111"/>
<path d="M55.2189 19.3726C55.1658 19.3726 55.1221 19.3913 55.0846 19.4288C55.0471 19.4663 55.0283 19.5101 55.0283 19.5632C55.0283 19.6147 55.0471 19.6601 55.0846 19.6976C55.1221 19.7335 55.1658 19.7522 55.2189 19.7522C55.2721 19.7522 55.3158 19.7335 55.3533 19.6976C55.3908 19.6601 55.4096 19.6147 55.4096 19.5632C55.4096 19.5101 55.3908 19.4663 55.3533 19.4288C55.3158 19.3913 55.2721 19.3726 55.2189 19.3726Z" fill="#111111"/>
<path d="M53.3156 17.4758C53.2625 17.4758 53.2172 17.4946 53.1813 17.5321C53.1438 17.568 53.125 17.6133 53.125 17.6649C53.125 17.718 53.1438 17.7633 53.1813 17.7993C53.2172 17.8368 53.2625 17.8555 53.3156 17.8555C53.3672 17.8555 53.4125 17.8368 53.45 17.7993C53.4875 17.7633 53.5047 17.718 53.5047 17.6649C53.5047 17.6133 53.4875 17.568 53.45 17.5321C53.4125 17.4946 53.3672 17.4758 53.3156 17.4758Z" fill="#111111"/>
<path d="M52.3629 20.3242C52.3113 20.3242 52.266 20.343 52.2285 20.3789C52.1926 20.4164 52.1738 20.4617 52.1738 20.5133C52.1738 20.5664 52.1926 20.6102 52.2285 20.6477C52.266 20.6852 52.3113 20.7039 52.3629 20.7039C52.416 20.7039 52.4613 20.6852 52.4988 20.6477C52.5348 20.6102 52.5535 20.5664 52.5535 20.5133C52.5535 20.4617 52.5348 20.4164 52.4988 20.3789C52.4613 20.343 52.416 20.3242 52.3629 20.3242Z" fill="#111111"/>
<path d="M52.3629 18.4258C52.3113 18.4258 52.266 18.443 52.2285 18.4805C52.1926 18.518 52.1738 18.5633 52.1738 18.6148C52.1738 18.668 52.1926 18.7117 52.2285 18.7492C52.266 18.7867 52.3113 18.8055 52.3629 18.8055C52.416 18.8055 52.4613 18.7867 52.4988 18.7492C52.5348 18.7117 52.5535 18.668 52.5535 18.6148C52.5535 18.5633 52.5348 18.518 52.4988 18.4805C52.4613 18.443 52.416 18.4258 52.3629 18.4258Z" fill="#111111"/>
<path d="M54.2673 24.1196C54.2001 24.1212 54.147 24.1493 54.1079 24.204C54.0704 24.2618 54.0658 24.3212 54.0908 24.3837C54.1236 24.4603 54.1829 24.4993 54.2658 24.4993C54.3501 24.4993 54.4095 24.4603 54.4423 24.3837C54.4517 24.3603 54.4579 24.3353 54.4579 24.3103C54.4579 24.2712 54.447 24.2368 54.4251 24.204C54.3861 24.1493 54.3345 24.1212 54.2673 24.1196Z" fill="#111111"/>
<path d="M54.267 22.2227C54.2139 22.2227 54.1686 22.2414 54.1311 22.2773C54.0936 22.3148 54.0732 22.3602 54.0732 22.4133C54.0732 22.4664 54.092 22.5117 54.1295 22.5492C54.167 22.5867 54.2123 22.6055 54.2654 22.6055C54.3186 22.6055 54.3639 22.5867 54.4014 22.5477C54.4389 22.5102 54.4576 22.4648 54.4576 22.4133C54.4576 22.3602 54.4389 22.3148 54.4014 22.2789C54.3639 22.2414 54.3201 22.2227 54.267 22.2227Z" fill="#111111"/>
<path d="M53.3156 23.1726C53.2625 23.1726 53.2172 23.1898 53.1813 23.2273C53.1438 23.2648 53.125 23.3085 53.125 23.3617C53.125 23.4132 53.1437 23.4585 53.1797 23.496C53.2172 23.5335 53.2625 23.5507 53.3141 23.5523C53.3672 23.5523 53.4109 23.5335 53.4484 23.4976C53.4859 23.4601 53.5047 23.4148 53.5047 23.3632C53.5062 23.3101 53.4875 23.2648 53.45 23.2273C53.4125 23.1914 53.3672 23.1726 53.3156 23.1726Z" fill="#111111"/>
<path d="M55.2189 23.1726C55.1658 23.1726 55.1221 23.1898 55.0846 23.2273C55.0471 23.2648 55.0283 23.3085 55.0283 23.3617C55.0283 23.4132 55.0471 23.4585 55.0846 23.496C55.1205 23.5335 55.1658 23.5507 55.2189 23.5523C55.2705 23.5523 55.3158 23.5335 55.3533 23.4976C55.3908 23.4601 55.4096 23.4148 55.4096 23.3632C55.4096 23.3101 55.3908 23.2648 55.3549 23.2273C55.3174 23.1914 55.2721 23.1726 55.2189 23.1726Z" fill="#111111"/>
<path d="M53.3156 21.2727C53.2625 21.2727 53.2172 21.2915 53.1813 21.329C53.1438 21.3665 53.125 21.4102 53.125 21.4633C53.125 21.5149 53.1438 21.5602 53.1813 21.5977C53.2172 21.6352 53.2625 21.6524 53.3156 21.6524C53.3672 21.6524 53.4125 21.6352 53.45 21.5977C53.4875 21.5602 53.5047 21.5149 53.5047 21.4633C53.5047 21.4102 53.4875 21.3665 53.45 21.329C53.4125 21.2915 53.3672 21.2727 53.3156 21.2727Z" fill="#111111"/>
<path d="M55.2189 21.2727C55.1658 21.2727 55.1221 21.2915 55.0846 21.329C55.0471 21.3665 55.0283 21.4102 55.0283 21.4633C55.0283 21.5149 55.0471 21.5602 55.0846 21.5977C55.1221 21.6352 55.1658 21.6524 55.2189 21.6524C55.2721 21.6524 55.3158 21.6352 55.3533 21.5977C55.3908 21.5602 55.4096 21.5149 55.4096 21.4633C55.4096 21.4102 55.3908 21.3665 55.3533 21.329C55.3158 21.2915 55.2721 21.2727 55.2189 21.2727Z" fill="#111111"/>
<path d="M52.3621 24.1196C52.2949 24.1212 52.2418 24.1493 52.2043 24.204C52.1668 24.2618 52.1606 24.3212 52.1871 24.3837C52.2199 24.4603 52.2778 24.4993 52.3621 24.4993C52.4465 24.4993 52.5043 24.4603 52.5371 24.3837C52.5481 24.3603 52.5528 24.3353 52.5528 24.3103C52.5528 24.2712 52.5418 24.2368 52.5199 24.204C52.4824 24.1493 52.4309 24.1212 52.3621 24.1196Z" fill="#111111"/>
<path d="M52.3621 22.2227C52.309 22.2227 52.2637 22.2414 52.2262 22.2773C52.1887 22.3148 52.1699 22.3602 52.1699 22.4133C52.1699 22.4664 52.1887 22.5117 52.2262 22.5492C52.2637 22.5867 52.309 22.6055 52.3621 22.6055C52.4152 22.6055 52.4605 22.5867 52.498 22.5477C52.5355 22.5102 52.5543 22.4648 52.5527 22.4133C52.5527 22.3602 52.534 22.3148 52.498 22.2789C52.4605 22.2414 52.4152 22.2227 52.3621 22.2227Z" fill="#111111"/>
<path d="M53.3156 25.071C53.2625 25.071 53.2172 25.0898 53.1813 25.1257C53.1438 25.1632 53.125 25.2085 53.125 25.2601C53.125 25.3132 53.1437 25.357 53.1797 25.3945C53.2172 25.432 53.2625 25.4507 53.3141 25.4507C53.3672 25.4507 53.4109 25.432 53.4484 25.396C53.4859 25.3585 53.5047 25.3148 53.5047 25.2617C53.5062 25.2085 53.4875 25.1648 53.45 25.1273C53.4125 25.0898 53.3672 25.071 53.3156 25.071Z" fill="#111111"/>
<path d="M55.2189 25.071C55.1658 25.071 55.1221 25.0898 55.0846 25.1257C55.0471 25.1632 55.0283 25.2085 55.0283 25.2601C55.0283 25.3132 55.0471 25.357 55.0846 25.3945C55.1205 25.432 55.1658 25.4507 55.2189 25.4507C55.2705 25.4507 55.3158 25.432 55.3533 25.396C55.3908 25.3585 55.4096 25.3148 55.4096 25.2617C55.4096 25.2085 55.3908 25.1648 55.3549 25.1273C55.3174 25.0898 55.2721 25.071 55.2189 25.071Z" fill="#111111"/>
<path d="M48.6605 8.96479C48.6293 8.94136 48.5934 8.93042 48.5559 8.93042C48.5293 8.93042 48.5043 8.93667 48.4809 8.94604C48.4465 8.96011 48.4184 8.98354 48.3965 9.01479C48.3762 9.04761 48.3652 9.08198 48.3652 9.12104C48.3652 9.14604 48.3699 9.17104 48.3793 9.19448C48.3996 9.24292 48.434 9.27573 48.4809 9.29604C48.5043 9.30542 48.5293 9.31167 48.5559 9.31011C48.5934 9.31167 48.6293 9.30073 48.6605 9.27729C48.6934 9.25698 48.7152 9.23042 48.7293 9.19448C48.7402 9.17104 48.7465 9.14604 48.7449 9.12104C48.7465 9.08198 48.7355 9.04761 48.7121 9.01479C48.6996 8.99448 48.6824 8.97729 48.6605 8.96479Z" fill="#111111"/>
<path d="M50.4592 12.729C50.4061 12.729 50.3623 12.7478 50.3248 12.7837C50.2873 12.8212 50.2686 12.8665 50.2686 12.9181C50.2686 12.9712 50.2873 13.0165 50.3248 13.0524C50.3623 13.0899 50.4061 13.1087 50.4592 13.1087C50.5123 13.1087 50.5561 13.0899 50.5936 13.0524C50.6311 13.0165 50.6498 12.9712 50.6498 12.9181C50.6498 12.8665 50.6311 12.8212 50.5936 12.7837C50.5561 12.7478 50.5123 12.729 50.4592 12.729Z" fill="#111111"/>
<path d="M50.4592 10.8306C50.4061 10.8306 50.3623 10.8493 50.3248 10.8853C50.2873 10.9228 50.2686 10.9681 50.2686 11.0196C50.2686 11.0728 50.2873 11.1165 50.3248 11.154C50.3623 11.1915 50.4061 11.2103 50.4592 11.2103C50.5123 11.2103 50.5561 11.1915 50.5936 11.154C50.6311 11.1165 50.6498 11.0728 50.6498 11.0196C50.6498 10.9681 50.6311 10.9228 50.5936 10.8853C50.5561 10.8493 50.5123 10.8306 50.4592 10.8306Z" fill="#111111"/>
<path d="M49.5079 11.7788C49.4548 11.7804 49.411 11.7991 49.3735 11.8366C49.3376 11.8741 49.3188 11.9179 49.3204 11.971C49.3204 12.0226 49.3392 12.0679 49.3767 12.1038C49.4142 12.1413 49.4595 12.1585 49.511 12.1585C49.5642 12.1585 49.6079 12.1397 49.6454 12.1038C49.6829 12.0663 49.7001 12.021 49.7001 11.9694C49.7001 11.9163 49.6813 11.871 49.6438 11.8335C49.6063 11.796 49.561 11.7788 49.5079 11.7788Z" fill="#111111"/>
<path d="M49.5079 9.87891C49.4548 9.88047 49.411 9.89922 49.3751 9.93672C49.3376 9.97422 49.3188 10.018 49.3204 10.0711C49.3204 10.1227 49.3392 10.1664 49.3767 10.2039C49.4126 10.2398 49.4579 10.2586 49.511 10.2586C49.5626 10.2586 49.6079 10.2398 49.6438 10.2039C49.6813 10.1664 49.7001 10.1227 49.7001 10.0711C49.7017 10.018 49.6829 9.97109 49.6438 9.93359C49.6063 9.89609 49.561 9.87891 49.5079 9.87891Z" fill="#111111"/>
<path d="M48.6605 12.7618C48.6293 12.7399 48.5934 12.729 48.5559 12.729C48.5293 12.729 48.5043 12.7337 48.4809 12.7446C48.4043 12.7774 48.3652 12.8353 48.3652 12.9196C48.3652 13.0024 48.4043 13.0618 48.4809 13.0946C48.5043 13.104 48.5293 13.1087 48.5559 13.1087C48.5934 13.1087 48.6293 13.0978 48.6605 13.0774C48.6871 13.0587 48.7074 13.0368 48.723 13.0087C48.7371 12.9806 48.7449 12.9509 48.7449 12.9196C48.7449 12.8884 48.7371 12.8587 48.723 12.8306C48.7074 12.8024 48.6871 12.779 48.6605 12.7618Z" fill="#111111"/>
<path d="M48.6605 10.8634C48.6293 10.8415 48.5934 10.8306 48.5559 10.8306C48.5293 10.8306 48.5043 10.8353 48.4809 10.8462C48.4043 10.879 48.3652 10.9368 48.3652 11.0212C48.3652 11.104 48.4043 11.1618 48.4809 11.1946C48.5043 11.2056 48.5293 11.2103 48.5559 11.2103C48.5934 11.2103 48.6293 11.1993 48.6605 11.1774C48.7184 11.1399 48.7465 11.0884 48.7449 11.0196C48.7465 10.9524 48.7184 10.8993 48.6605 10.8634Z" fill="#111111"/>
<path d="M50.4595 16.5259C50.4283 16.5259 50.3986 16.5337 50.3705 16.5493C50.3423 16.5649 50.3189 16.5853 50.3017 16.6118C50.2845 16.6384 50.2736 16.6665 50.2705 16.6993C50.2673 16.7306 50.272 16.7603 50.2845 16.7899C50.3173 16.8665 50.3752 16.9056 50.4595 16.9056C50.5423 16.9056 50.6017 16.8665 50.6345 16.7899C50.6455 16.7665 50.6502 16.7415 50.6502 16.7165C50.6502 16.6774 50.6392 16.6431 50.6173 16.6103C50.5798 16.5556 50.5267 16.5274 50.4595 16.5259Z" fill="#111111"/>
<path d="M50.4592 14.6257C50.4061 14.6257 50.3623 14.6445 50.3248 14.682C50.2873 14.7195 50.2686 14.7632 50.2686 14.8164C50.2686 14.8679 50.2873 14.9132 50.3248 14.9507C50.3623 14.9867 50.4061 15.0054 50.4592 15.0054C50.5123 15.0054 50.5561 14.9867 50.5936 14.9507C50.6311 14.9132 50.6498 14.8679 50.6498 14.8164C50.6498 14.7632 50.6311 14.7195 50.5936 14.682C50.5561 14.6445 50.5123 14.6257 50.4592 14.6257Z" fill="#111111"/>
<path d="M49.508 15.5774C49.4549 15.5774 49.4096 15.5961 49.3736 15.6321C49.3361 15.6696 49.3174 15.7149 49.3174 15.7665C49.3174 15.8196 49.3361 15.8633 49.3736 15.9008C49.4096 15.9383 49.4549 15.9571 49.508 15.9571C49.5611 15.9571 49.6049 15.9383 49.6424 15.9008C49.6799 15.8633 49.6986 15.8196 49.6986 15.7665C49.6986 15.7149 49.6799 15.6696 49.6424 15.6321C49.6049 15.5961 49.5596 15.5774 49.508 15.5774Z" fill="#111111"/>
<path d="M51.4113 15.5774C51.3598 15.5774 51.3145 15.5961 51.277 15.6321C51.2395 15.6696 51.2207 15.7149 51.2207 15.7665C51.2207 15.8196 51.2395 15.8633 51.277 15.9008C51.3145 15.9383 51.3598 15.9571 51.4113 15.9571C51.4645 15.9571 51.5098 15.9383 51.5457 15.9008C51.5832 15.8633 51.602 15.8196 51.602 15.7665C51.602 15.7149 51.5832 15.6696 51.5457 15.6321C51.5098 15.5961 51.4645 15.5774 51.4113 15.5774Z" fill="#111111"/>
<path d="M49.508 13.6772C49.4549 13.6772 49.4096 13.696 49.3736 13.7335C49.3361 13.771 49.3174 13.8147 49.3174 13.8679C49.3174 13.921 49.3361 13.9647 49.3736 14.0022C49.4096 14.0397 49.4549 14.0585 49.508 14.0585C49.5611 14.0585 49.6049 14.0397 49.6424 14.0022C49.6799 13.9647 49.6986 13.921 49.6986 13.8679C49.6986 13.8147 49.6799 13.771 49.6424 13.7335C49.6049 13.696 49.5596 13.6772 49.508 13.6772Z" fill="#111111"/>
<path d="M51.4113 13.6772C51.3598 13.6772 51.3145 13.696 51.277 13.7335C51.2395 13.771 51.2207 13.8147 51.2207 13.8679C51.2207 13.921 51.2395 13.9647 51.277 14.0022C51.3145 14.0397 51.3598 14.0585 51.4113 14.0585C51.4645 14.0585 51.5098 14.0397 51.5457 14.0022C51.5832 13.9647 51.602 13.921 51.602 13.8679C51.602 13.8147 51.5832 13.771 51.5457 13.7335C51.5098 13.696 51.4645 13.6772 51.4113 13.6772Z" fill="#111111"/>
<path d="M48.6605 16.5587C48.6293 16.5368 48.5934 16.5259 48.5559 16.5259C48.5293 16.5259 48.5043 16.5321 48.4809 16.5415C48.4465 16.5571 48.4184 16.579 48.3965 16.6103C48.3762 16.6431 48.3652 16.6774 48.3652 16.7165C48.3652 16.7415 48.3699 16.7665 48.3793 16.7899C48.3996 16.8384 48.434 16.8712 48.4809 16.8915C48.5043 16.9009 48.5293 16.9056 48.5559 16.9056C48.5934 16.9056 48.6293 16.8962 48.6605 16.8743C48.6934 16.854 48.7152 16.8259 48.7293 16.7899C48.7402 16.7665 48.7465 16.7415 48.7449 16.7165C48.7465 16.6774 48.7355 16.6431 48.7121 16.6103C48.6996 16.5899 48.6824 16.5728 48.6605 16.5587Z" fill="#111111"/>
<path d="M48.6605 14.6603C48.6293 14.6384 48.5934 14.6274 48.5559 14.6274C48.5293 14.6274 48.5043 14.6321 48.4809 14.6431C48.4043 14.6759 48.3652 14.7337 48.3652 14.8181C48.3652 14.9024 48.4043 14.9603 48.4809 14.9931C48.5043 15.0024 48.5293 15.0071 48.5559 15.0071C48.5934 15.0071 48.6293 14.9962 48.6605 14.9759C48.6871 14.9587 48.7074 14.9353 48.723 14.9071C48.7371 14.879 48.7449 14.8493 48.7449 14.8181C48.7449 14.7868 48.7371 14.7571 48.723 14.729C48.7074 14.7009 48.6871 14.6774 48.6605 14.6603Z" fill="#111111"/>
<path d="M50.4592 20.3242C50.4061 20.3242 50.3623 20.343 50.3248 20.3789C50.2873 20.4164 50.2686 20.4617 50.2686 20.5133C50.2686 20.5664 50.2873 20.6102 50.3248 20.6477C50.3623 20.6852 50.4061 20.7039 50.4592 20.7039C50.5123 20.7039 50.5561 20.6852 50.5936 20.6477C50.6311 20.6102 50.6498 20.5664 50.6498 20.5133C50.6498 20.4617 50.6311 20.4164 50.5936 20.3789C50.5561 20.343 50.5123 20.3242 50.4592 20.3242Z" fill="#111111"/>
<path d="M50.4592 18.4258C50.4061 18.4258 50.3623 18.443 50.3248 18.4805C50.2873 18.518 50.2686 18.5633 50.2686 18.6148C50.2686 18.668 50.2873 18.7117 50.3248 18.7492C50.3623 18.7867 50.4061 18.8055 50.4592 18.8055C50.5123 18.8055 50.5561 18.7867 50.5936 18.7492C50.6311 18.7117 50.6498 18.668 50.6498 18.6148C50.6498 18.5633 50.6311 18.518 50.5936 18.4805C50.5561 18.443 50.5123 18.4258 50.4592 18.4258Z" fill="#111111"/>
<path d="M49.508 19.3726C49.4549 19.3726 49.4096 19.3913 49.3736 19.4288C49.3361 19.4663 49.3174 19.5101 49.3174 19.5632C49.3174 19.6147 49.3361 19.6601 49.3736 19.6976C49.4096 19.7335 49.4549 19.7522 49.508 19.7522C49.5611 19.7522 49.6049 19.7335 49.6424 19.6976C49.6799 19.6601 49.6986 19.6147 49.6986 19.5632C49.6986 19.5101 49.6799 19.4663 49.6424 19.4288C49.6049 19.3913 49.5596 19.3726 49.508 19.3726Z" fill="#111111"/>
<path d="M51.4113 19.3726C51.3598 19.3726 51.3145 19.3913 51.277 19.4288C51.2395 19.4663 51.2207 19.5101 51.2207 19.5632C51.2207 19.6147 51.2395 19.6601 51.277 19.6976C51.3145 19.7335 51.3598 19.7522 51.4113 19.7522C51.4645 19.7522 51.5098 19.7335 51.5457 19.6976C51.5832 19.6601 51.602 19.6147 51.602 19.5632C51.602 19.5101 51.5832 19.4663 51.5457 19.4288C51.5098 19.3913 51.4645 19.3726 51.4113 19.3726Z" fill="#111111"/>
<path d="M49.508 17.4758C49.4549 17.4758 49.4096 17.4946 49.3736 17.5321C49.3361 17.568 49.3174 17.6133 49.3174 17.6649C49.3174 17.718 49.3361 17.7633 49.3736 17.7993C49.4096 17.8368 49.4549 17.8555 49.508 17.8555C49.5611 17.8555 49.6049 17.8368 49.6424 17.7993C49.6799 17.7633 49.6986 17.718 49.6986 17.6649C49.6986 17.6133 49.6799 17.568 49.6424 17.5321C49.6049 17.4946 49.5596 17.4758 49.508 17.4758Z" fill="#111111"/>
<path d="M51.4113 17.4758C51.3598 17.4758 51.3145 17.4946 51.277 17.5321C51.2395 17.568 51.2207 17.6133 51.2207 17.6649C51.2207 17.718 51.2395 17.7633 51.277 17.7993C51.3145 17.8368 51.3598 17.8555 51.4113 17.8555C51.4645 17.8555 51.5098 17.8368 51.5457 17.7993C51.5832 17.7633 51.602 17.718 51.602 17.6649C51.602 17.6133 51.5832 17.568 51.5457 17.5321C51.5098 17.4946 51.4645 17.4758 51.4113 17.4758Z" fill="#111111"/>
<path d="M48.6605 20.357C48.6293 20.3352 48.5934 20.3242 48.5559 20.3242C48.5293 20.3242 48.5043 20.3289 48.4809 20.3398C48.4043 20.3727 48.3652 20.4305 48.3652 20.5148C48.3652 20.5977 48.4043 20.657 48.4809 20.6898C48.5043 20.6992 48.5293 20.7039 48.5559 20.7039C48.5934 20.7039 48.6293 20.693 48.6605 20.6727C48.6871 20.6539 48.7074 20.632 48.723 20.6039C48.7371 20.5758 48.7449 20.5461 48.7449 20.5148C48.7449 20.482 48.7371 20.4523 48.723 20.4258C48.7074 20.3977 48.6871 20.3742 48.6605 20.357Z" fill="#111111"/>
<path d="M48.6605 18.4586C48.6293 18.4351 48.5934 18.4242 48.5559 18.4258C48.5293 18.4242 48.5043 18.4305 48.4809 18.4414C48.4043 18.4742 48.3652 18.532 48.3652 18.6148C48.3652 18.6992 48.4043 18.757 48.4809 18.7898C48.5043 18.8008 48.5293 18.8055 48.5559 18.8055C48.5934 18.8055 48.6293 18.7945 48.6605 18.7726C48.6871 18.7555 48.7074 18.732 48.723 18.7055C48.7371 18.6773 48.7449 18.6476 48.7449 18.6148C48.7449 18.5836 48.7371 18.5539 48.723 18.5258C48.7074 18.4976 48.6871 18.4758 48.6605 18.4586Z" fill="#111111"/>
<path d="M50.4598 24.1196C50.3926 24.1212 50.3395 24.1493 50.302 24.204C50.2645 24.2618 50.2582 24.3212 50.2848 24.3837C50.3176 24.4603 50.3754 24.4993 50.4598 24.4993C50.5426 24.4993 50.602 24.4603 50.6348 24.3837C50.6457 24.3603 50.6504 24.3353 50.6504 24.3103C50.6504 24.2712 50.6395 24.2368 50.6176 24.204C50.5801 24.1493 50.527 24.1212 50.4598 24.1196Z" fill="#111111"/>
<path d="M50.4599 22.2227C50.4067 22.2227 50.3614 22.2414 50.3239 22.2773C50.2864 22.3148 50.2677 22.3602 50.2677 22.4133C50.2661 22.4664 50.2849 22.5117 50.3224 22.5492C50.3599 22.5867 50.4067 22.6055 50.4583 22.6055C50.5114 22.6055 50.5567 22.5867 50.5942 22.5477C50.6317 22.5102 50.6505 22.4648 50.6505 22.4133C50.6505 22.3602 50.6317 22.3148 50.5942 22.2789C50.5567 22.2414 50.513 22.2227 50.4599 22.2227Z" fill="#111111"/>
<path d="M49.508 23.1726C49.4549 23.1726 49.4111 23.1898 49.3736 23.2273C49.3361 23.2648 49.3174 23.3085 49.3174 23.3617C49.3174 23.4132 49.3361 23.4585 49.3721 23.496C49.4096 23.5335 49.4549 23.5507 49.5064 23.5523C49.5596 23.5523 49.6049 23.5335 49.6424 23.4976C49.6783 23.4601 49.6971 23.4148 49.6986 23.3632C49.6986 23.3101 49.6799 23.2648 49.6424 23.2273C49.6049 23.1914 49.5611 23.1726 49.508 23.1726Z" fill="#111111"/>
<path d="M51.4113 23.1726C51.3598 23.1726 51.3145 23.1898 51.277 23.2273C51.2395 23.2648 51.2207 23.3085 51.2207 23.3617C51.2207 23.4132 51.2395 23.4585 51.277 23.496C51.3129 23.5335 51.3582 23.5507 51.4113 23.5523C51.4629 23.5523 51.5082 23.5335 51.5457 23.4976C51.5832 23.4601 51.602 23.4148 51.602 23.3632C51.602 23.3101 51.5848 23.2648 51.5473 23.2273C51.5098 23.1914 51.4645 23.1726 51.4113 23.1726Z" fill="#111111"/>
<path d="M49.508 21.2727C49.4549 21.2727 49.4096 21.2915 49.3736 21.329C49.3361 21.3665 49.3174 21.4102 49.3174 21.4633C49.3174 21.5149 49.3361 21.5602 49.3736 21.5977C49.4096 21.6352 49.4549 21.6524 49.508 21.6524C49.5611 21.6524 49.6049 21.6352 49.6424 21.5977C49.6799 21.5602 49.6986 21.5149 49.6986 21.4633C49.6986 21.4102 49.6799 21.3665 49.6424 21.329C49.6049 21.2915 49.5596 21.2727 49.508 21.2727Z" fill="#111111"/>
<path d="M51.4113 21.2727C51.3598 21.2727 51.3145 21.2915 51.277 21.329C51.2395 21.3665 51.2207 21.4102 51.2207 21.4633C51.2207 21.5149 51.2395 21.5602 51.277 21.5977C51.3145 21.6352 51.3598 21.6524 51.4113 21.6524C51.4645 21.6524 51.5098 21.6352 51.5457 21.5977C51.5832 21.5602 51.602 21.5149 51.602 21.4633C51.602 21.4102 51.5832 21.3665 51.5457 21.329C51.5098 21.2915 51.4645 21.2727 51.4113 21.2727Z" fill="#111111"/>
<path d="M48.6611 24.1539C48.6298 24.1336 48.5939 24.1211 48.5564 24.1211C48.5236 24.1211 48.4939 24.1289 48.4658 24.1445C48.4377 24.1602 48.4158 24.1805 48.397 24.207C48.3798 24.2336 48.3705 24.2617 48.3673 24.293C48.3642 24.3258 48.3673 24.3555 48.3798 24.3852C48.4002 24.432 48.4345 24.4664 48.4814 24.4867C48.5048 24.4961 48.5298 24.5008 48.5564 24.5008C48.5939 24.5008 48.6298 24.4914 48.6611 24.4695C48.6939 24.4477 48.7158 24.4195 48.7298 24.3852C48.7408 24.3617 48.747 24.3367 48.7455 24.3117C48.747 24.2727 48.7345 24.2383 48.7127 24.2055C48.7002 24.1852 48.683 24.168 48.6611 24.1539Z" fill="#111111"/>
<path d="M48.6605 22.2555C48.6293 22.2336 48.5934 22.2227 48.5559 22.2227C48.5293 22.2227 48.5043 22.2273 48.4809 22.2383C48.4043 22.2711 48.3652 22.3289 48.3652 22.4133C48.3652 22.4961 48.4043 22.5555 48.4809 22.5883C48.5043 22.5977 48.5293 22.6039 48.5559 22.6039C48.5934 22.6039 48.6293 22.593 48.6605 22.5711C48.6871 22.5523 48.7074 22.5305 48.723 22.5023C48.7371 22.4742 48.7449 22.4445 48.7449 22.4133C48.7449 22.382 48.7371 22.3523 48.723 22.3242C48.7074 22.2961 48.6871 22.2727 48.6605 22.2555Z" fill="#111111"/>
<path d="M49.508 25.071C49.4549 25.071 49.4111 25.0898 49.3736 25.1257C49.3361 25.1632 49.3174 25.2085 49.3174 25.2601C49.3174 25.3132 49.3361 25.357 49.3721 25.3945C49.4096 25.432 49.4549 25.4507 49.5064 25.4507C49.5596 25.4507 49.6049 25.432 49.6424 25.396C49.6783 25.3585 49.6971 25.3148 49.6986 25.2617C49.6986 25.2085 49.6799 25.1648 49.6424 25.1273C49.6049 25.0898 49.5611 25.071 49.508 25.071Z" fill="#111111"/>
<path d="M51.4113 25.071C51.3598 25.071 51.3145 25.0898 51.277 25.1257C51.2395 25.1632 51.2207 25.2085 51.2207 25.2601C51.2207 25.3132 51.2395 25.357 51.277 25.3945C51.3129 25.432 51.3582 25.4507 51.4113 25.4507C51.4629 25.4507 51.5082 25.432 51.5457 25.396C51.5832 25.3585 51.602 25.3148 51.602 25.2617C51.602 25.2085 51.5848 25.1648 51.5473 25.1273C51.5098 25.0898 51.4645 25.071 51.4113 25.071Z" fill="#111111"/>
<path d="M44.855 1.36963C44.8222 1.34619 44.7878 1.33525 44.7488 1.33682C44.6816 1.33525 44.6285 1.36338 44.5894 1.41963C44.5519 1.47588 44.5472 1.53682 44.5722 1.59932C44.605 1.67744 44.6644 1.7165 44.7488 1.7165C44.7878 1.7165 44.8222 1.70557 44.855 1.68369C44.8863 1.66182 44.9097 1.63525 44.9238 1.59932C44.9331 1.57588 44.9394 1.55244 44.9394 1.52588C44.9394 1.48682 44.9285 1.45088 44.9066 1.41963C44.8925 1.39932 44.8753 1.38213 44.855 1.36963Z" fill="#111111"/>
<path d="M46.6516 5.13208C46.6 5.13208 46.5547 5.15083 46.5172 5.18833C46.4797 5.22427 46.4609 5.26958 46.4609 5.32271C46.4609 5.37427 46.4797 5.41958 46.5172 5.45708C46.5547 5.49302 46.6 5.51177 46.6516 5.51177C46.7047 5.51177 46.75 5.49302 46.7859 5.45708C46.8234 5.41958 46.8422 5.37427 46.8422 5.32271C46.8422 5.26958 46.8234 5.22427 46.7859 5.18833C46.75 5.15083 46.7047 5.13208 46.6516 5.13208Z" fill="#111111"/>
<path d="M45.7004 4.18359C45.6473 4.18359 45.6035 4.20234 45.566 4.23984C45.5285 4.27734 45.5098 4.32109 45.5098 4.37422C45.5098 4.42578 45.5285 4.47109 45.566 4.50859C45.6035 4.54609 45.6473 4.56328 45.7004 4.56328C45.7535 4.56328 45.7973 4.54609 45.8348 4.50859C45.8723 4.47109 45.891 4.42578 45.891 4.37422C45.891 4.32109 45.8723 4.27734 45.8348 4.23984C45.7988 4.20234 45.7535 4.18359 45.7004 4.18359Z" fill="#111111"/>
<path d="M44.8545 5.16636C44.8217 5.14448 44.7873 5.13354 44.7482 5.13354C44.6951 5.13354 44.6498 5.15229 44.6139 5.18979C44.5764 5.22573 44.5576 5.27105 44.5576 5.32417C44.5576 5.37573 44.5764 5.42104 44.6139 5.45698C44.6498 5.49448 44.6951 5.51323 44.7482 5.51323C44.7873 5.51323 44.8217 5.50229 44.8545 5.48042C44.8795 5.46323 44.9014 5.4398 44.9154 5.41167C44.9311 5.38511 44.9373 5.35542 44.9373 5.32417C44.9373 5.29136 44.9311 5.26167 44.9154 5.23511C44.9014 5.20698 44.8795 5.18355 44.8545 5.16636Z" fill="#111111"/>
<path d="M44.8544 3.26792C44.8216 3.24604 44.7872 3.23511 44.7481 3.23511C44.695 3.23511 44.6513 3.25386 44.6138 3.29136C44.5778 3.32886 44.5591 3.37417 44.5606 3.42573C44.5606 3.47886 44.5794 3.52261 44.6169 3.56011C44.6544 3.59605 44.6997 3.61479 44.7513 3.61479C44.8044 3.61479 44.8481 3.59604 44.8856 3.55854C44.9231 3.52104 44.9403 3.4773 44.9403 3.42417C44.9403 3.35698 44.9106 3.30386 44.8544 3.26792Z" fill="#111111"/>
<path d="M46.6516 8.93042C46.5844 8.93042 46.5312 8.95854 46.4938 9.01479C46.4719 9.04761 46.4609 9.08198 46.4609 9.12104C46.4609 9.14604 46.4656 9.17104 46.4766 9.19448C46.5094 9.27104 46.5687 9.31011 46.6516 9.31011C46.7359 9.31011 46.7937 9.27104 46.8281 9.19448C46.8375 9.17104 46.8422 9.14604 46.8422 9.12104C46.8422 9.08198 46.8312 9.04761 46.8094 9.01479C46.7719 8.96011 46.7187 8.93198 46.6516 8.93042Z" fill="#111111"/>
<path d="M46.6516 7.03198C46.6 7.03198 46.5547 7.05073 46.5172 7.08823C46.4797 7.12573 46.4609 7.16948 46.4609 7.22261C46.4609 7.27417 46.4797 7.31948 46.5172 7.35698C46.5547 7.39292 46.6 7.41167 46.6516 7.41167C46.7047 7.41167 46.75 7.39292 46.7859 7.35698C46.8234 7.31948 46.8422 7.27417 46.8422 7.22261C46.8422 7.16948 46.8234 7.12573 46.7859 7.08823C46.75 7.05073 46.7047 7.03198 46.6516 7.03198Z" fill="#111111"/>
<path d="M45.7004 7.98193C45.6473 7.98193 45.6035 8.00068 45.566 8.03662C45.5285 8.07412 45.5098 8.11943 45.5098 8.171C45.5098 8.22412 45.5285 8.26943 45.566 8.30537C45.6035 8.34287 45.6473 8.36162 45.7004 8.36162C45.7535 8.36162 45.7973 8.34287 45.8348 8.30537C45.8723 8.26943 45.891 8.22412 45.891 8.171C45.891 8.11943 45.8723 8.07412 45.8348 8.03662C45.7973 8.00068 45.7535 7.98193 45.7004 7.98193Z" fill="#111111"/>
<path d="M47.6031 7.98193C47.5516 7.98193 47.5063 8.00068 47.4688 8.03662C47.4328 8.07412 47.4141 8.11943 47.4141 8.171C47.4141 8.22412 47.4328 8.26943 47.4688 8.30537C47.5063 8.34287 47.5516 8.36162 47.6031 8.36162C47.6562 8.36162 47.7016 8.34287 47.7391 8.30537C47.775 8.26943 47.7938 8.22412 47.7938 8.171C47.7938 8.11943 47.775 8.07412 47.7391 8.03662C47.7016 8.00068 47.6562 7.98193 47.6031 7.98193Z" fill="#111111"/>
<path d="M45.7004 6.08359C45.6473 6.08359 45.6035 6.10077 45.566 6.13827C45.5285 6.17577 45.5098 6.22109 45.5098 6.27265C45.5098 6.32577 45.5285 6.36952 45.566 6.40702C45.6035 6.44452 45.6473 6.46327 45.7004 6.46327C45.7535 6.46327 45.7973 6.44452 45.8348 6.40702C45.8723 6.36952 45.891 6.32577 45.891 6.27265C45.891 6.21952 45.8723 6.17577 45.8348 6.13827C45.7988 6.10077 45.7535 6.08202 45.7004 6.08359Z" fill="#111111"/>
<path d="M47.6031 6.08359C47.5516 6.08359 47.5063 6.10077 47.4688 6.13827C47.4328 6.17577 47.4141 6.22109 47.4141 6.27265C47.4141 6.32577 47.4328 6.36952 47.4688 6.40702C47.5063 6.44452 47.5516 6.46327 47.6031 6.46327C47.6562 6.46327 47.7016 6.44452 47.7391 6.40702C47.775 6.36952 47.7938 6.32577 47.7938 6.27265C47.7953 6.21952 47.7766 6.17577 47.7391 6.13827C47.7016 6.10077 47.6562 6.08202 47.6031 6.08359Z" fill="#111111"/>
<path d="M44.8545 8.96479C44.8217 8.94136 44.7873 8.93042 44.7482 8.93042C44.6795 8.93042 44.6264 8.95854 44.5889 9.01479C44.5686 9.04761 44.5576 9.08198 44.5576 9.12104C44.5576 9.14604 44.5623 9.17104 44.5717 9.19448C44.6045 9.27261 44.6639 9.31167 44.7482 9.31011C44.7873 9.31167 44.8217 9.30073 44.8545 9.27729C44.8857 9.25698 44.9092 9.23042 44.9232 9.19448C44.9326 9.17104 44.9389 9.14604 44.9389 9.12104C44.9389 9.08198 44.9279 9.04761 44.9061 9.01479C44.892 8.99448 44.8748 8.97729 44.8545 8.96479Z" fill="#111111"/>
<path d="M44.8544 7.06479C44.8216 7.04292 44.7872 7.03198 44.7481 7.03198C44.695 7.03354 44.6513 7.05229 44.6138 7.08979C44.5778 7.12729 44.5591 7.17105 44.5606 7.22417C44.5606 7.27573 44.5794 7.32104 44.6169 7.35698C44.6544 7.39448 44.6997 7.41167 44.7513 7.41167C44.8044 7.41167 44.8481 7.39292 44.8856 7.35542C44.9231 7.31948 44.9403 7.27417 44.9403 7.22261C44.9403 7.15386 44.9106 7.10229 44.8544 7.06479Z" fill="#111111"/>
<path d="M46.6516 12.729C46.6 12.729 46.5547 12.7478 46.5172 12.7837C46.4797 12.8212 46.4609 12.8665 46.4609 12.9181C46.4609 12.9712 46.4797 13.0165 46.5172 13.0524C46.5547 13.0899 46.6 13.1087 46.6516 13.1087C46.7047 13.1087 46.75 13.0899 46.7859 13.0524C46.8234 13.0165 46.8422 12.9712 46.8422 12.9181C46.8422 12.8665 46.8234 12.8212 46.7859 12.7837C46.75 12.7478 46.7047 12.729 46.6516 12.729Z" fill="#111111"/>
<path d="M46.6516 10.8306C46.6 10.8306 46.5547 10.8493 46.5172 10.8853C46.4797 10.9228 46.4609 10.9681 46.4609 11.0196C46.4609 11.0728 46.4797 11.1165 46.5172 11.154C46.5547 11.1915 46.6 11.2103 46.6516 11.2103C46.7047 11.2103 46.75 11.1915 46.7859 11.154C46.8234 11.1165 46.8422 11.0728 46.8422 11.0196C46.8422 10.9681 46.8234 10.9228 46.7859 10.8853C46.75 10.8493 46.7047 10.8306 46.6516 10.8306Z" fill="#111111"/>
<path d="M45.7004 11.7788C45.6473 11.7788 45.6035 11.7976 45.566 11.8351C45.5285 11.8726 45.5098 11.9163 45.5098 11.9694C45.5098 12.021 45.5285 12.0663 45.566 12.1038C45.6035 12.1397 45.6473 12.1585 45.7004 12.1585C45.7535 12.1585 45.7973 12.1397 45.8348 12.1038C45.8723 12.0663 45.891 12.021 45.891 11.9694C45.891 11.9163 45.8723 11.8726 45.8348 11.8351C45.7973 11.7976 45.7535 11.7788 45.7004 11.7788Z" fill="#111111"/>
<path d="M47.6031 11.7788C47.5516 11.7788 47.5063 11.7976 47.4688 11.8351C47.4328 11.8726 47.4141 11.9163 47.4141 11.9694C47.4141 12.021 47.4328 12.0663 47.4688 12.1038C47.5063 12.1397 47.5516 12.1585 47.6031 12.1585C47.6562 12.1585 47.7016 12.1397 47.7391 12.1038C47.775 12.0663 47.7938 12.021 47.7938 11.9694C47.7938 11.9163 47.775 11.8726 47.7391 11.8351C47.7016 11.7976 47.6562 11.7788 47.6031 11.7788Z" fill="#111111"/>
<path d="M45.7004 9.87891C45.6473 9.87891 45.6035 9.89766 45.566 9.93516C45.5285 9.97266 45.5098 10.0164 45.5098 10.0695C45.5098 10.1211 45.5285 10.1664 45.566 10.2039C45.6035 10.2398 45.6473 10.2586 45.7004 10.2586C45.7535 10.2586 45.7973 10.2398 45.8348 10.2039C45.8723 10.1664 45.891 10.1211 45.891 10.0695C45.891 10.0164 45.8723 9.97266 45.8348 9.93516C45.7973 9.89766 45.7535 9.87891 45.7004 9.87891Z" fill="#111111"/>
<path d="M47.6031 9.87891C47.5516 9.87891 47.5063 9.89766 47.4688 9.93516C47.4328 9.97266 47.4141 10.0164 47.4141 10.0695C47.4141 10.1211 47.4328 10.1664 47.4688 10.2039C47.5063 10.2398 47.5516 10.2586 47.6031 10.2586C47.6562 10.2586 47.7016 10.2398 47.7391 10.2039C47.775 10.1664 47.7938 10.1211 47.7938 10.0695C47.7938 10.0164 47.775 9.97266 47.7391 9.93516C47.7016 9.89766 47.6562 9.87891 47.6031 9.87891Z" fill="#111111"/>
<path d="M44.8549 12.7618C44.8221 12.7399 44.7877 12.729 44.7486 12.729C44.7174 12.729 44.6877 12.7353 44.6596 12.7493C44.6315 12.7634 44.6096 12.7821 44.5908 12.8071C44.5721 12.8321 44.5611 12.8603 44.5549 12.8915C44.5502 12.9212 44.5533 12.9524 44.5627 12.9821C44.5721 13.0103 44.5877 13.0368 44.6111 13.0587C44.633 13.0806 44.6596 13.0962 44.6893 13.1056C44.719 13.1149 44.7486 13.1165 44.7799 13.1103C44.8096 13.1056 44.8377 13.0931 44.8627 13.0743C44.8877 13.0556 44.9065 13.0321 44.9205 13.0056C44.933 12.9774 44.9393 12.9478 44.9393 12.9165C44.9377 12.8853 44.9299 12.8556 44.9158 12.829C44.9002 12.8009 44.8799 12.779 44.8549 12.7618Z" fill="#111111"/>
<path d="M44.8544 10.8634C44.8216 10.8415 44.7872 10.8306 44.7481 10.8306C44.695 10.8306 44.6513 10.8493 44.6138 10.8868C44.5778 10.9243 44.5591 10.9696 44.5606 11.0212C44.5606 11.0743 44.5794 11.1181 44.6169 11.1556C44.6544 11.1915 44.6997 11.2103 44.7513 11.2103C44.8044 11.2103 44.8481 11.1915 44.8856 11.154C44.9231 11.1165 44.9403 11.0728 44.9403 11.0196C44.9403 10.9524 44.9106 10.8993 44.8544 10.8634Z" fill="#111111"/>
<path d="M46.6519 16.5259C46.6207 16.5259 46.591 16.5337 46.5629 16.5493C46.5347 16.5649 46.5113 16.5853 46.4941 16.6118C46.4769 16.6384 46.466 16.6665 46.4629 16.6993C46.4597 16.7306 46.4644 16.7603 46.4769 16.7899C46.5097 16.8665 46.5691 16.9056 46.6519 16.9056C46.7363 16.9056 46.7941 16.8665 46.8285 16.7899C46.8379 16.7665 46.8425 16.7415 46.8425 16.7165C46.8425 16.6774 46.8316 16.6431 46.8097 16.6103C46.7722 16.5556 46.7191 16.5274 46.6519 16.5259Z" fill="#111111"/>
<path d="M46.6516 14.6257C46.6 14.6257 46.5547 14.6445 46.5172 14.682C46.4797 14.7195 46.4609 14.7632 46.4609 14.8164C46.4609 14.8679 46.4797 14.9132 46.5172 14.9507C46.5547 14.9867 46.6 15.0054 46.6516 15.0054C46.7047 15.0054 46.75 14.9867 46.7859 14.9507C46.8234 14.9132 46.8422 14.8679 46.8422 14.8164C46.8422 14.7632 46.8234 14.7195 46.7859 14.682C46.75 14.6445 46.7047 14.6257 46.6516 14.6257Z" fill="#111111"/>
<path d="M45.7004 15.5774C45.6473 15.5774 45.6035 15.5961 45.566 15.6321C45.5285 15.6696 45.5098 15.7149 45.5098 15.7665C45.5098 15.8196 45.5285 15.8633 45.566 15.9008C45.6035 15.9383 45.6473 15.9571 45.7004 15.9571C45.7535 15.9571 45.7973 15.9383 45.8348 15.9008C45.8723 15.8633 45.891 15.8196 45.891 15.7665C45.891 15.7149 45.8723 15.6696 45.8348 15.6321C45.7973 15.5961 45.7535 15.5774 45.7004 15.5774Z" fill="#111111"/>
<path d="M47.6031 15.5774C47.5516 15.5774 47.5063 15.5961 47.4688 15.6321C47.4328 15.6696 47.4141 15.7149 47.4141 15.7665C47.4141 15.8196 47.4328 15.8633 47.4688 15.9008C47.5063 15.9383 47.5516 15.9571 47.6031 15.9571C47.6562 15.9571 47.7016 15.9383 47.7391 15.9008C47.775 15.8633 47.7938 15.8196 47.7938 15.7665C47.7938 15.7149 47.775 15.6696 47.7391 15.6321C47.7016 15.5961 47.6562 15.5774 47.6031 15.5774Z" fill="#111111"/>
<path d="M45.7004 13.6772C45.6473 13.6772 45.6035 13.696 45.566 13.7335C45.5285 13.771 45.5098 13.8147 45.5098 13.8679C45.5098 13.921 45.5285 13.9647 45.566 14.0022C45.6035 14.0397 45.6473 14.0585 45.7004 14.0585C45.7535 14.0585 45.7973 14.0397 45.8348 14.0022C45.8723 13.9647 45.891 13.921 45.891 13.8679C45.891 13.8147 45.8723 13.771 45.8348 13.7335C45.7973 13.696 45.7535 13.6772 45.7004 13.6772Z" fill="#111111"/>
<path d="M47.6031 13.6772C47.5516 13.6772 47.5063 13.696 47.4688 13.7335C47.4328 13.771 47.4141 13.8147 47.4141 13.8679C47.4141 13.921 47.4328 13.9647 47.4688 14.0022C47.5063 14.0397 47.5516 14.0585 47.6031 14.0585C47.6562 14.0585 47.7016 14.0397 47.7391 14.0022C47.775 13.9647 47.7938 13.921 47.7938 13.8679C47.7938 13.8147 47.775 13.771 47.7391 13.7335C47.7016 13.696 47.6562 13.6772 47.6031 13.6772Z" fill="#111111"/>
<path d="M44.8549 16.5587C44.822 16.5368 44.7877 16.5259 44.7486 16.5259C44.7158 16.5259 44.6861 16.5337 44.658 16.5493C44.6314 16.5649 44.608 16.5853 44.5908 16.6118C44.572 16.6384 44.5627 16.6665 44.5595 16.6993C44.5564 16.7306 44.5611 16.7603 44.572 16.7899C44.5955 16.8446 44.6361 16.8806 44.6939 16.8978C44.7502 16.9149 44.8049 16.9071 44.8549 16.8743C44.8861 16.854 44.908 16.8259 44.9236 16.7899C44.933 16.7665 44.9392 16.7415 44.9392 16.7165C44.9392 16.6774 44.9283 16.6431 44.9064 16.6103C44.8924 16.5899 44.8752 16.5728 44.8549 16.5587Z" fill="#111111"/>
<path d="M44.8549 14.6603C44.8221 14.6384 44.7877 14.6274 44.7486 14.6274C44.7174 14.6274 44.6877 14.6337 44.6596 14.6478C44.6315 14.6618 44.6096 14.6806 44.5908 14.7056C44.5721 14.7321 44.5611 14.7587 44.5549 14.7899C44.5502 14.8212 44.5533 14.8509 44.5627 14.8806C44.5721 14.9103 44.5877 14.9353 44.6111 14.9571C44.633 14.979 44.6596 14.9946 44.6893 15.004C44.719 15.0134 44.7486 15.0149 44.7799 15.0103C44.8096 15.004 44.8377 14.9931 44.8627 14.9743C44.8877 14.9556 44.9065 14.9321 44.9205 14.904C44.933 14.8759 44.9393 14.8462 44.9393 14.8149C44.9377 14.7837 44.9299 14.754 44.9158 14.7274C44.9002 14.7009 44.8799 14.6774 44.8549 14.6603Z" fill="#111111"/>
<path d="M46.6516 20.3242C46.6 20.3242 46.5547 20.343 46.5172 20.3789C46.4797 20.4164 46.4609 20.4617 46.4609 20.5133C46.4609 20.5664 46.4797 20.6102 46.5172 20.6477C46.5547 20.6852 46.6 20.7039 46.6516 20.7039C46.7047 20.7039 46.75 20.6852 46.7859 20.6477C46.8234 20.6102 46.8422 20.5664 46.8422 20.5133C46.8422 20.4617 46.8234 20.4164 46.7859 20.3789C46.75 20.343 46.7047 20.3242 46.6516 20.3242Z" fill="#111111"/>
<path d="M46.6516 18.4258C46.6 18.4258 46.5547 18.443 46.5172 18.4805C46.4797 18.518 46.4609 18.5633 46.4609 18.6148C46.4609 18.668 46.4797 18.7117 46.5172 18.7492C46.5547 18.7867 46.6 18.8055 46.6516 18.8055C46.7047 18.8055 46.75 18.7867 46.7859 18.7492C46.8234 18.7117 46.8422 18.668 46.8422 18.6148C46.8422 18.5633 46.8234 18.518 46.7859 18.4805C46.75 18.443 46.7047 18.4258 46.6516 18.4258Z" fill="#111111"/>
<path d="M45.7004 19.3726C45.6473 19.3726 45.6035 19.3913 45.566 19.4288C45.5285 19.4663 45.5098 19.5101 45.5098 19.5632C45.5098 19.6147 45.5285 19.6601 45.566 19.6976C45.6035 19.7335 45.6473 19.7522 45.7004 19.7522C45.7535 19.7522 45.7973 19.7335 45.8348 19.6976C45.8723 19.6601 45.891 19.6147 45.891 19.5632C45.891 19.5101 45.8723 19.4663 45.8348 19.4288C45.7973 19.3913 45.7535 19.3726 45.7004 19.3726Z" fill="#111111"/>
<path d="M47.6031 19.3726C47.5516 19.3726 47.5063 19.3913 47.4688 19.4288C47.4328 19.4663 47.4141 19.5101 47.4141 19.5632C47.4141 19.6147 47.4328 19.6601 47.4688 19.6976C47.5063 19.7335 47.5516 19.7522 47.6031 19.7522C47.6562 19.7522 47.7016 19.7335 47.7391 19.6976C47.775 19.6601 47.7938 19.6147 47.7938 19.5632C47.7938 19.5101 47.775 19.4663 47.7391 19.4288C47.7016 19.3913 47.6562 19.3726 47.6031 19.3726Z" fill="#111111"/>
<path d="M45.7004 17.4758C45.6473 17.4758 45.6035 17.4946 45.566 17.5321C45.5285 17.568 45.5098 17.6133 45.5098 17.6649C45.5098 17.718 45.5285 17.7633 45.566 17.7993C45.6035 17.8368 45.6473 17.8555 45.7004 17.8555C45.7535 17.8555 45.7973 17.8368 45.8348 17.7993C45.8723 17.7633 45.891 17.718 45.891 17.6649C45.891 17.6133 45.8723 17.568 45.8348 17.5321C45.7973 17.4946 45.7535 17.4758 45.7004 17.4758Z" fill="#111111"/>
<path d="M47.6031 17.4758C47.5516 17.4758 47.5063 17.4946 47.4688 17.5321C47.4328 17.568 47.4141 17.6133 47.4141 17.6649C47.4141 17.718 47.4328 17.7633 47.4688 17.7993C47.5063 17.8368 47.5516 17.8555 47.6031 17.8555C47.6562 17.8555 47.7016 17.8368 47.7391 17.7993C47.775 17.7633 47.7938 17.718 47.7938 17.6649C47.7938 17.6133 47.775 17.568 47.7391 17.5321C47.7016 17.4946 47.6562 17.4758 47.6031 17.4758Z" fill="#111111"/>
<path d="M44.8549 20.357C44.8221 20.3352 44.7877 20.3242 44.7486 20.3242C44.7174 20.3242 44.6877 20.3305 44.6596 20.3445C44.6315 20.3586 44.6096 20.3773 44.5908 20.4023C44.5721 20.4273 44.5611 20.4555 44.5549 20.4867C44.5502 20.5164 44.5533 20.5477 44.5627 20.5758C44.5721 20.6055 44.5877 20.632 44.6111 20.6539C44.633 20.6758 44.6596 20.6914 44.6893 20.7008C44.719 20.7086 44.7486 20.7117 44.7799 20.7055C44.8096 20.7008 44.8377 20.6883 44.8627 20.6695C44.8877 20.6508 44.9065 20.6273 44.9205 20.5992C44.933 20.5711 44.9393 20.543 44.9393 20.5117C44.9377 20.4805 44.9299 20.4508 44.9158 20.4242C44.9002 20.3961 44.8799 20.3742 44.8549 20.357Z" fill="#111111"/>
<path d="M44.8549 18.4585C44.8221 18.4351 44.7877 18.4242 44.7486 18.4257C44.7174 18.4242 44.6877 18.432 44.6596 18.446C44.6315 18.4585 44.6096 18.4789 44.5908 18.5039C44.5721 18.5289 44.5611 18.557 44.5549 18.5867C44.5502 18.6179 44.5533 18.6476 44.5627 18.6773C44.5721 18.707 44.5877 18.7335 44.6111 18.7554C44.633 18.7757 44.6596 18.7914 44.6893 18.8007C44.719 18.8101 44.7486 18.8132 44.7799 18.807C44.8096 18.8023 44.8377 18.7898 44.8627 18.771C44.8877 18.7523 44.9065 18.7289 44.9205 18.7007C44.933 18.6726 44.9393 18.6429 44.9393 18.6117C44.9377 18.582 44.9299 18.5523 44.9158 18.5242C44.9002 18.4976 44.8799 18.4757 44.8549 18.4585Z" fill="#111111"/>
<path d="M46.6522 24.1196C46.585 24.1212 46.5319 24.1493 46.4944 24.204C46.4569 24.2618 46.4506 24.3212 46.4772 24.3837C46.51 24.4603 46.5694 24.4993 46.6522 24.4993C46.7365 24.4993 46.7944 24.4603 46.8287 24.3837C46.8381 24.3603 46.8428 24.3353 46.8428 24.3103C46.8428 24.2712 46.8319 24.2368 46.81 24.204C46.7725 24.1493 46.7194 24.1212 46.6522 24.1196Z" fill="#111111"/>
<path d="M46.6512 22.2227C46.598 22.2227 46.5527 22.2414 46.5152 22.2773C46.4777 22.3148 46.459 22.3602 46.459 22.4133C46.459 22.4664 46.4777 22.5117 46.5152 22.5492C46.5527 22.5867 46.598 22.6055 46.6512 22.6055C46.7043 22.6055 46.7496 22.5867 46.7871 22.5477C46.823 22.5102 46.8418 22.4648 46.8418 22.4133C46.8418 22.3602 46.823 22.3148 46.7855 22.2789C46.7496 22.2414 46.7043 22.2227 46.6512 22.2227Z" fill="#111111"/>
<path d="M45.7004 23.1726C45.6473 23.1726 45.6035 23.1898 45.566 23.2273C45.5285 23.2648 45.5098 23.3085 45.5098 23.3617C45.5098 23.4132 45.5285 23.4585 45.566 23.496C45.602 23.5335 45.6473 23.5507 45.6988 23.5523C45.752 23.5523 45.7973 23.5335 45.8348 23.4976C45.8723 23.4601 45.891 23.4148 45.891 23.3632C45.891 23.3101 45.8723 23.2648 45.8363 23.2273C45.7988 23.1914 45.7535 23.1726 45.7004 23.1726Z" fill="#111111"/>
<path d="M47.6031 23.1726C47.5516 23.1726 47.5063 23.1898 47.4688 23.2273C47.4328 23.2648 47.4141 23.3085 47.4141 23.3617C47.4141 23.4132 47.4313 23.4585 47.4688 23.496C47.5063 23.5335 47.55 23.5507 47.6031 23.5523C47.6547 23.5523 47.7 23.5335 47.7375 23.4976C47.775 23.4601 47.7938 23.4148 47.7938 23.3632C47.7953 23.3101 47.7766 23.2648 47.7391 23.2273C47.7016 23.1914 47.6562 23.1726 47.6031 23.1726Z" fill="#111111"/>
<path d="M45.7004 21.2727C45.6473 21.2727 45.6035 21.2915 45.566 21.329C45.5285 21.3665 45.5098 21.4102 45.5098 21.4633C45.5098 21.5149 45.5285 21.5602 45.566 21.5977C45.6035 21.6352 45.6473 21.6524 45.7004 21.6524C45.7535 21.6524 45.7973 21.6352 45.8348 21.5977C45.8723 21.5602 45.891 21.5149 45.891 21.4633C45.891 21.4102 45.8723 21.3665 45.8348 21.329C45.7973 21.2915 45.7535 21.2727 45.7004 21.2727Z" fill="#111111"/>
<path d="M47.6031 21.2727C47.5516 21.2727 47.5063 21.2915 47.4688 21.329C47.4328 21.3665 47.4141 21.4102 47.4141 21.4633C47.4141 21.5149 47.4328 21.5602 47.4688 21.5977C47.5063 21.6352 47.5516 21.6524 47.6031 21.6524C47.6562 21.6524 47.7016 21.6352 47.7391 21.5977C47.775 21.5602 47.7938 21.5149 47.7938 21.4633C47.7938 21.4102 47.775 21.3665 47.7391 21.329C47.7016 21.2915 47.6562 21.2727 47.6031 21.2727Z" fill="#111111"/>
<path d="M44.855 24.154C44.8113 24.1243 44.7628 24.115 44.7113 24.1243C44.6597 24.1353 44.6191 24.1618 44.5894 24.2056C44.5519 24.2634 44.5472 24.3228 44.5722 24.3853C44.5956 24.44 44.6363 24.4759 44.6941 24.4931C44.7503 24.5103 44.805 24.5025 44.855 24.4697C44.8863 24.4478 44.9081 24.4197 44.9238 24.3853C44.9331 24.3618 44.9394 24.3368 44.9394 24.3118C44.9394 24.2728 44.9285 24.2384 44.9066 24.2056C44.8925 24.1853 44.8753 24.1681 44.855 24.154Z" fill="#111111"/>
<path d="M44.8551 22.2555C44.8223 22.2336 44.7879 22.2227 44.7488 22.2227C44.6988 22.2273 44.6566 22.2477 44.6238 22.2836C44.5895 22.3195 44.5723 22.3633 44.5723 22.4133C44.5723 22.4633 44.5895 22.5055 44.6238 22.543C44.6566 22.5789 44.6988 22.5992 44.7488 22.6039C44.7879 22.6039 44.8223 22.593 44.8551 22.5711C44.8801 22.5523 44.902 22.5305 44.916 22.5023C44.9316 22.4742 44.9379 22.4445 44.9379 22.4133C44.9379 22.382 44.9316 22.3523 44.916 22.3242C44.902 22.2961 44.8801 22.2727 44.8551 22.2555Z" fill="#111111"/>
<path d="M45.7004 25.071C45.6473 25.071 45.6035 25.0898 45.566 25.1257C45.5285 25.1632 45.5098 25.2085 45.5098 25.2601C45.5098 25.3132 45.5285 25.357 45.566 25.3945C45.602 25.432 45.6473 25.4507 45.6988 25.4507C45.752 25.4507 45.7973 25.432 45.8348 25.396C45.8723 25.3585 45.891 25.3148 45.891 25.2617C45.891 25.2085 45.8723 25.1648 45.8363 25.1273C45.7988 25.0898 45.7535 25.071 45.7004 25.071Z" fill="#111111"/>
<path d="M47.6031 25.071C47.5516 25.071 47.5063 25.0898 47.4688 25.1257C47.4328 25.1632 47.4141 25.2085 47.4141 25.2601C47.4141 25.3132 47.4313 25.357 47.4688 25.3945C47.5063 25.432 47.55 25.4507 47.6031 25.4507C47.6547 25.4507 47.7 25.432 47.7375 25.396C47.775 25.3585 47.7938 25.3148 47.7938 25.2617C47.7953 25.2085 47.7766 25.1648 47.7391 25.1273C47.7016 25.0898 47.6562 25.071 47.6031 25.071Z" fill="#111111"/>
<path d="M42.8434 5.13208C42.7918 5.13208 42.7465 5.15083 42.709 5.18833C42.673 5.22427 42.6543 5.26958 42.6543 5.32271C42.6543 5.37427 42.673 5.41958 42.709 5.45708C42.7465 5.49302 42.7918 5.51177 42.8434 5.51177C42.8965 5.51177 42.9418 5.49302 42.9793 5.45708C43.0152 5.41958 43.034 5.37427 43.034 5.32271C43.034 5.26958 43.0152 5.22427 42.9793 5.18833C42.9418 5.15083 42.8965 5.13208 42.8434 5.13208Z" fill="#111111"/>
<path d="M43.7971 4.18359C43.7439 4.18359 43.6986 4.20234 43.6611 4.23984C43.6252 4.27734 43.6064 4.32109 43.6064 4.37422C43.6064 4.42578 43.6252 4.47109 43.6611 4.50859C43.6986 4.54609 43.7439 4.56328 43.7971 4.56328C43.8486 4.56328 43.8939 4.54609 43.9314 4.50859C43.9689 4.47109 43.9861 4.42578 43.9861 4.37422C43.9877 4.32109 43.9689 4.27734 43.9314 4.23984C43.8939 4.20234 43.8486 4.18359 43.7971 4.18359Z" fill="#111111"/>
<path d="M42.8434 8.93042C42.7762 8.93042 42.723 8.95854 42.6855 9.01479C42.6637 9.04761 42.6543 9.08198 42.6543 9.12104C42.6543 9.14604 42.659 9.17104 42.6684 9.19448C42.7012 9.27104 42.7605 9.31011 42.8434 9.31011C42.9277 9.31011 42.9871 9.27104 43.0199 9.19448C43.0293 9.17104 43.034 9.14604 43.034 9.12104C43.034 9.08198 43.023 9.04761 43.0012 9.01479C42.9637 8.96011 42.9121 8.93198 42.8434 8.93042Z" fill="#111111"/>
<path d="M42.8434 7.03198C42.7918 7.03198 42.7465 7.05073 42.709 7.08823C42.673 7.12573 42.6543 7.16948 42.6543 7.22261C42.6543 7.27417 42.673 7.31948 42.709 7.35698C42.7465 7.39292 42.7918 7.41167 42.8434 7.41167C42.8965 7.41167 42.9418 7.39292 42.9793 7.35698C43.0152 7.31948 43.034 7.27417 43.034 7.22261C43.034 7.16948 43.0152 7.12573 42.9793 7.08823C42.9418 7.05073 42.8965 7.03198 42.8434 7.03198Z" fill="#111111"/>
<path d="M41.8918 7.98193C41.8402 7.98193 41.7949 8.00068 41.7574 8.03662C41.7199 8.07412 41.7012 8.11943 41.7012 8.171C41.7012 8.22412 41.7199 8.26943 41.7574 8.30537C41.7949 8.34287 41.8402 8.36162 41.8918 8.36162C41.9449 8.36162 41.9902 8.34287 42.0262 8.30537C42.0637 8.26943 42.0824 8.22412 42.0824 8.171C42.0824 8.11943 42.0637 8.07412 42.0262 8.03662C41.9902 8.00068 41.9449 7.98193 41.8918 7.98193Z" fill="#111111"/>
<path d="M43.7971 7.98193C43.7439 7.98193 43.6986 8.00068 43.6611 8.03662C43.6252 8.07412 43.6064 8.11943 43.6064 8.171C43.6064 8.22412 43.6252 8.26943 43.6611 8.30537C43.6986 8.34287 43.7439 8.36162 43.7971 8.36162C43.8486 8.36162 43.8939 8.34287 43.9314 8.30537C43.9689 8.26943 43.9861 8.22412 43.9861 8.171C43.9861 8.11943 43.9689 8.07412 43.9314 8.03662C43.8939 8.00068 43.8486 7.98193 43.7971 7.98193Z" fill="#111111"/>
<path d="M43.7971 6.08359C43.7439 6.08359 43.6986 6.10077 43.6611 6.13827C43.6252 6.17577 43.6064 6.22109 43.6064 6.27265C43.6064 6.32577 43.6252 6.36952 43.6611 6.40702C43.6986 6.44452 43.7439 6.46327 43.7971 6.46327C43.8486 6.46327 43.8939 6.44452 43.9314 6.40702C43.9689 6.36952 43.9861 6.32577 43.9861 6.27265C43.9877 6.21952 43.9689 6.17577 43.9314 6.13827C43.8939 6.10077 43.8486 6.08202 43.7971 6.08359Z" fill="#111111"/>
<path d="M40.9752 8.93525C40.9627 8.93369 40.9502 8.93369 40.9377 8.93525C40.9111 8.93525 40.8861 8.93994 40.8627 8.94932C40.8283 8.96494 40.8002 8.98838 40.7783 9.01963C40.7564 9.05088 40.7471 9.08682 40.7471 9.12432C40.7471 9.15088 40.7518 9.17588 40.7611 9.19932C40.7814 9.24619 40.8158 9.28057 40.8627 9.30088C40.8861 9.31025 40.9111 9.31494 40.9377 9.31494C40.9502 9.3165 40.9627 9.3165 40.9752 9.31494C41.0393 9.30088 41.083 9.26338 41.108 9.20244C41.1189 9.179 41.1236 9.15557 41.1236 9.129C41.1236 9.08994 41.1127 9.05557 41.0908 9.02432C41.0643 8.97744 41.0252 8.94932 40.9752 8.93525Z" fill="#111111"/>
<path d="M42.8434 12.729C42.7918 12.729 42.7465 12.7478 42.709 12.7837C42.673 12.8212 42.6543 12.8665 42.6543 12.9181C42.6543 12.9712 42.673 13.0165 42.709 13.0524C42.7465 13.0899 42.7918 13.1087 42.8434 13.1087C42.8965 13.1087 42.9418 13.0899 42.9793 13.0524C43.0152 13.0165 43.034 12.9712 43.034 12.9181C43.034 12.8665 43.0152 12.8212 42.9793 12.7837C42.9418 12.7478 42.8965 12.729 42.8434 12.729Z" fill="#111111"/>
<path d="M42.8434 10.8306C42.7918 10.8306 42.7465 10.8493 42.709 10.8853C42.673 10.9228 42.6543 10.9681 42.6543 11.0196C42.6543 11.0728 42.673 11.1165 42.709 11.154C42.7465 11.1915 42.7918 11.2103 42.8434 11.2103C42.8965 11.2103 42.9418 11.1915 42.9793 11.154C43.0152 11.1165 43.034 11.0728 43.034 11.0196C43.034 10.9681 43.0152 10.9228 42.9793 10.8853C42.9418 10.8493 42.8965 10.8306 42.8434 10.8306Z" fill="#111111"/>
<path d="M41.8918 11.7788C41.8402 11.7788 41.7949 11.7976 41.7574 11.8351C41.7199 11.8726 41.7012 11.9163 41.7012 11.9694C41.7012 12.021 41.7199 12.0663 41.7574 12.1038C41.7949 12.1397 41.8402 12.1585 41.8918 12.1585C41.9449 12.1585 41.9902 12.1397 42.0262 12.1038C42.0637 12.0663 42.0824 12.021 42.0824 11.9694C42.0824 11.9163 42.0637 11.8726 42.0262 11.8351C41.9902 11.7976 41.9449 11.7788 41.8918 11.7788Z" fill="#111111"/>
<path d="M43.7971 11.7788C43.7439 11.7788 43.6986 11.7976 43.6611 11.8351C43.6252 11.8726 43.6064 11.9163 43.6064 11.9694C43.6064 12.021 43.6252 12.0663 43.6611 12.1038C43.6986 12.1397 43.7439 12.1585 43.7971 12.1585C43.8486 12.1585 43.8939 12.1397 43.9314 12.1038C43.9689 12.0663 43.9861 12.021 43.9861 11.9694C43.9861 11.9163 43.9689 11.8726 43.9314 11.8351C43.8939 11.7976 43.8486 11.7788 43.7971 11.7788Z" fill="#111111"/>
<path d="M41.8918 9.87891C41.8402 9.87891 41.7949 9.89766 41.7574 9.93516C41.7199 9.97266 41.7012 10.0164 41.7012 10.0695C41.7012 10.1211 41.7199 10.1664 41.7574 10.2039C41.7949 10.2398 41.8402 10.2586 41.8918 10.2586C41.9449 10.2586 41.9902 10.2398 42.0262 10.2039C42.0637 10.1664 42.0824 10.1211 42.0824 10.0695C42.0824 10.0164 42.0637 9.97266 42.0262 9.93516C41.9902 9.89766 41.9449 9.87891 41.8918 9.87891Z" fill="#111111"/>
<path d="M43.7971 9.87891C43.7439 9.87891 43.6986 9.89766 43.6611 9.93516C43.6252 9.97266 43.6064 10.0164 43.6064 10.0695C43.6064 10.1211 43.6252 10.1664 43.6611 10.2039C43.6986 10.2398 43.7439 10.2586 43.7971 10.2586C43.8486 10.2586 43.8939 10.2398 43.9314 10.2039C43.9689 10.1664 43.9861 10.1211 43.9861 10.0695C43.9861 10.0164 43.9689 9.97266 43.9314 9.93516C43.8939 9.89766 43.8486 9.87891 43.7971 9.87891Z" fill="#111111"/>
<path d="M40.9752 12.7319C40.9627 12.7319 40.9502 12.7319 40.9377 12.7319C40.9111 12.7319 40.8861 12.7382 40.8627 12.7491C40.7861 12.7819 40.7471 12.8397 40.7471 12.9226C40.7471 13.0069 40.7861 13.0647 40.8627 13.0976C40.8861 13.1069 40.9111 13.1116 40.9377 13.1116C40.9502 13.1132 40.9627 13.1132 40.9752 13.1116C41.0189 13.1038 41.0564 13.0819 41.0846 13.046C41.1127 13.0116 41.1268 12.971 41.1268 12.9257C41.1283 12.8804 41.1143 12.8382 41.0861 12.8022C41.058 12.7663 41.0205 12.7429 40.9752 12.7319Z" fill="#111111"/>
<path d="M40.9752 10.8337C40.9627 10.8321 40.9502 10.8321 40.9377 10.8337C40.9111 10.8337 40.8861 10.8384 40.8627 10.8493C40.7861 10.8821 40.7471 10.9415 40.7471 11.0243C40.7471 11.1087 40.7861 11.1665 40.8627 11.1993C40.8861 11.2087 40.9111 11.2134 40.9377 11.2134C40.9502 11.2149 40.9627 11.2149 40.9752 11.2134C41.0189 11.204 41.0564 11.1821 41.0846 11.1478C41.1127 11.1134 41.1268 11.0728 41.1268 11.0274C41.1283 10.9821 41.1143 10.9399 41.0861 10.904C41.058 10.8665 41.0205 10.8431 40.9752 10.8337Z" fill="#111111"/>
<path d="M42.8433 16.5259C42.8121 16.5259 42.7824 16.5337 42.7543 16.5493C42.7261 16.5649 42.7043 16.5853 42.6855 16.6118C42.6683 16.6384 42.6574 16.6665 42.6543 16.6993C42.6511 16.7306 42.6558 16.7603 42.6683 16.7899C42.7011 16.8665 42.7605 16.9056 42.8433 16.9056C42.9277 16.9056 42.9871 16.8665 43.0199 16.7899C43.0293 16.7665 43.0339 16.7415 43.0339 16.7165C43.0339 16.6774 43.023 16.6431 43.0011 16.6103C42.9636 16.5556 42.9121 16.5274 42.8433 16.5259Z" fill="#111111"/>
<path d="M42.8434 14.6257C42.7918 14.6257 42.7465 14.6445 42.709 14.682C42.673 14.7195 42.6543 14.7632 42.6543 14.8164C42.6543 14.8679 42.673 14.9132 42.709 14.9507C42.7465 14.9867 42.7918 15.0054 42.8434 15.0054C42.8965 15.0054 42.9418 14.9867 42.9793 14.9507C43.0152 14.9132 43.034 14.8679 43.034 14.8164C43.034 14.7632 43.0152 14.7195 42.9793 14.682C42.9418 14.6445 42.8965 14.6257 42.8434 14.6257Z" fill="#111111"/>
<path d="M41.8918 15.5774C41.8402 15.5774 41.7949 15.5961 41.7574 15.6321C41.7199 15.6696 41.7012 15.7149 41.7012 15.7665C41.7012 15.8196 41.7199 15.8633 41.7574 15.9008C41.7949 15.9383 41.8402 15.9571 41.8918 15.9571C41.9449 15.9571 41.9902 15.9383 42.0262 15.9008C42.0637 15.8633 42.0824 15.8196 42.0824 15.7665C42.0824 15.7149 42.0637 15.6696 42.0262 15.6321C41.9902 15.5961 41.9449 15.5774 41.8918 15.5774Z" fill="#111111"/>
<path d="M43.7971 15.5774C43.7439 15.5774 43.6986 15.5961 43.6611 15.6321C43.6252 15.6696 43.6064 15.7149 43.6064 15.7665C43.6064 15.8196 43.6252 15.8633 43.6611 15.9008C43.6986 15.9383 43.7439 15.9571 43.7971 15.9571C43.8486 15.9571 43.8939 15.9383 43.9314 15.9008C43.9689 15.8633 43.9861 15.8196 43.9861 15.7665C43.9861 15.7149 43.9689 15.6696 43.9314 15.6321C43.8939 15.5961 43.8486 15.5774 43.7971 15.5774Z" fill="#111111"/>
<path d="M41.8918 13.6772C41.8402 13.6772 41.7949 13.696 41.7574 13.7335C41.7199 13.771 41.7012 13.8147 41.7012 13.8679C41.7012 13.921 41.7199 13.9647 41.7574 14.0022C41.7949 14.0397 41.8402 14.0585 41.8918 14.0585C41.9449 14.0585 41.9902 14.0397 42.0262 14.0022C42.0637 13.9647 42.0824 13.921 42.0824 13.8679C42.0824 13.8147 42.0637 13.771 42.0262 13.7335C41.9902 13.696 41.9449 13.6772 41.8918 13.6772Z" fill="#111111"/>
<path d="M43.7971 13.6772C43.7439 13.6772 43.6986 13.696 43.6611 13.7335C43.6252 13.771 43.6064 13.8147 43.6064 13.8679C43.6064 13.921 43.6252 13.9647 43.6611 14.0022C43.6986 14.0397 43.7439 14.0585 43.7971 14.0585C43.8486 14.0585 43.8939 14.0397 43.9314 14.0022C43.9689 13.9647 43.9861 13.921 43.9861 13.8679C43.9861 13.8147 43.9689 13.771 43.9314 13.7335C43.8939 13.696 43.8486 13.6772 43.7971 13.6772Z" fill="#111111"/>
<path d="M40.9752 16.5305C40.9627 16.5289 40.9502 16.5289 40.9377 16.5305C40.9111 16.5305 40.8861 16.5352 40.8627 16.5461C40.8283 16.5602 40.8002 16.5836 40.7783 16.6148C40.7564 16.6461 40.7471 16.682 40.7471 16.7195C40.7471 16.7461 40.7518 16.7695 40.7611 16.7945C40.7814 16.8414 40.8158 16.8758 40.8627 16.8961C40.8861 16.9055 40.9111 16.9102 40.9377 16.9102C40.9502 16.9117 40.9627 16.9117 40.9752 16.9102C41.0393 16.8961 41.083 16.8586 41.108 16.7977C41.1189 16.7742 41.1236 16.7492 41.1236 16.7242C41.1236 16.6852 41.1127 16.6508 41.0908 16.618C41.0643 16.5727 41.0252 16.5445 40.9752 16.5305Z" fill="#111111"/>
<path d="M40.9752 14.6257C40.9627 14.6241 40.9502 14.6241 40.9377 14.6257C40.9111 14.6257 40.8861 14.6304 40.8627 14.6413C40.7861 14.6741 40.7471 14.7335 40.7471 14.8163C40.7471 14.9007 40.7861 14.9585 40.8627 14.9913C40.8861 15.0007 40.9111 15.0054 40.9377 15.0054C40.9502 15.0069 40.9627 15.0069 40.9752 15.0054C41.0189 14.996 41.0564 14.9741 41.0846 14.9397C41.1127 14.9054 41.1268 14.8647 41.1268 14.8194C41.1283 14.7741 41.1143 14.7319 41.0861 14.696C41.058 14.6585 41.0205 14.6366 40.9752 14.6257Z" fill="#111111"/>
<path d="M42.8434 20.3242C42.7918 20.3242 42.7465 20.343 42.709 20.3789C42.673 20.4164 42.6543 20.4617 42.6543 20.5133C42.6543 20.5664 42.673 20.6102 42.709 20.6477C42.7465 20.6852 42.7918 20.7039 42.8434 20.7039C42.8965 20.7039 42.9418 20.6852 42.9793 20.6477C43.0152 20.6102 43.034 20.5664 43.034 20.5133C43.034 20.4617 43.0152 20.4164 42.9793 20.3789C42.9418 20.343 42.8965 20.3242 42.8434 20.3242Z" fill="#111111"/>
<path d="M42.8434 18.4258C42.7918 18.4258 42.7465 18.443 42.709 18.4805C42.673 18.518 42.6543 18.5633 42.6543 18.6148C42.6543 18.668 42.673 18.7117 42.709 18.7492C42.7465 18.7867 42.7918 18.8055 42.8434 18.8055C42.8965 18.8055 42.9418 18.7867 42.9793 18.7492C43.0152 18.7117 43.034 18.668 43.034 18.6148C43.034 18.5633 43.0152 18.518 42.9793 18.4805C42.9418 18.443 42.8965 18.4258 42.8434 18.4258Z" fill="#111111"/>
<path d="M41.8918 19.3726C41.8402 19.3726 41.7949 19.3913 41.7574 19.4288C41.7199 19.4663 41.7012 19.5101 41.7012 19.5632C41.7012 19.6147 41.7199 19.6601 41.7574 19.6976C41.7949 19.7335 41.8402 19.7522 41.8918 19.7522C41.9449 19.7522 41.9902 19.7335 42.0262 19.6976C42.0637 19.6601 42.0824 19.6147 42.0824 19.5632C42.0824 19.5101 42.0637 19.4663 42.0262 19.4288C41.9902 19.3913 41.9449 19.3726 41.8918 19.3726Z" fill="#111111"/>
<path d="M43.7971 19.3726C43.7439 19.3726 43.6986 19.3913 43.6611 19.4288C43.6252 19.4663 43.6064 19.5101 43.6064 19.5632C43.6064 19.6147 43.6252 19.6601 43.6611 19.6976C43.6986 19.7335 43.7439 19.7522 43.7971 19.7522C43.8486 19.7522 43.8939 19.7335 43.9314 19.6976C43.9689 19.6601 43.9861 19.6147 43.9861 19.5632C43.9861 19.5101 43.9689 19.4663 43.9314 19.4288C43.8939 19.3913 43.8486 19.3726 43.7971 19.3726Z" fill="#111111"/>
<path d="M41.8918 17.4758C41.8402 17.4758 41.7949 17.4946 41.7574 17.5321C41.7199 17.568 41.7012 17.6133 41.7012 17.6649C41.7012 17.718 41.7199 17.7633 41.7574 17.7993C41.7949 17.8368 41.8402 17.8555 41.8918 17.8555C41.9449 17.8555 41.9902 17.8368 42.0262 17.7993C42.0637 17.7633 42.0824 17.718 42.0824 17.6649C42.0824 17.6133 42.0637 17.568 42.0262 17.5321C41.9902 17.4946 41.9449 17.4758 41.8918 17.4758Z" fill="#111111"/>
<path d="M43.7971 17.4758C43.7439 17.4758 43.6986 17.4946 43.6611 17.5321C43.6252 17.568 43.6064 17.6133 43.6064 17.6649C43.6064 17.718 43.6252 17.7633 43.6611 17.7993C43.6986 17.8368 43.7439 17.8555 43.7971 17.8555C43.8486 17.8555 43.8939 17.8368 43.9314 17.7993C43.9689 17.7633 43.9861 17.718 43.9861 17.6649C43.9861 17.6133 43.9689 17.568 43.9314 17.5321C43.8939 17.4946 43.8486 17.4758 43.7971 17.4758Z" fill="#111111"/>
<path d="M40.9752 20.3273C40.9627 20.3258 40.9502 20.3258 40.9377 20.3273C40.9111 20.3273 40.8861 20.3336 40.8627 20.343C40.7861 20.3758 40.7471 20.4352 40.7471 20.518C40.7471 20.6023 40.7861 20.6602 40.8627 20.693C40.8861 20.7023 40.9111 20.707 40.9377 20.707C40.9502 20.7086 40.9627 20.7086 40.9752 20.707C41.0189 20.6992 41.0564 20.6758 41.0846 20.6414C41.1127 20.607 41.1268 20.5664 41.1268 20.5211C41.1283 20.4758 41.1143 20.4336 41.0861 20.3977C41.058 20.3602 41.0205 20.3383 40.9752 20.3273Z" fill="#111111"/>
<path d="M40.9752 18.4289C40.9627 18.4273 40.9502 18.4273 40.9377 18.4289C40.9111 18.4289 40.8861 18.4336 40.8627 18.4445C40.7861 18.4773 40.7471 18.5352 40.7471 18.6195C40.7471 18.7039 40.7861 18.7617 40.8627 18.7945C40.8861 18.8039 40.9111 18.8086 40.9377 18.8086H40.9752C41.0752 18.7867 41.1252 18.7242 41.1252 18.6227C41.1252 18.5195 41.0752 18.4586 40.9752 18.4352V18.4289Z" fill="#111111"/>
<path d="M42.8436 24.1196C42.7764 24.1212 42.7233 24.1493 42.6858 24.204C42.6483 24.2618 42.642 24.3212 42.6686 24.3837C42.7014 24.4603 42.7608 24.4993 42.8436 24.4993C42.928 24.4993 42.9873 24.4603 43.0201 24.3837C43.0295 24.3603 43.0342 24.3353 43.0342 24.3103C43.0342 24.2712 43.0233 24.2368 43.0014 24.204C42.9639 24.1493 42.9123 24.1212 42.8436 24.1196Z" fill="#111111"/>
<path d="M42.8436 22.2227C42.7904 22.2227 42.7451 22.2414 42.7076 22.2773C42.6701 22.3148 42.6514 22.3602 42.6514 22.4133C42.6514 22.4664 42.6701 22.5117 42.7076 22.5492C42.7451 22.5867 42.7904 22.6055 42.8436 22.6055C42.8967 22.6055 42.942 22.5867 42.9795 22.5477C43.017 22.5102 43.0357 22.4648 43.0342 22.4133C43.0342 22.3602 43.0154 22.3148 42.9795 22.2789C42.942 22.2414 42.8967 22.2227 42.8436 22.2227Z" fill="#111111"/>
<path d="M41.8918 23.1726C41.8402 23.1726 41.7949 23.1898 41.7574 23.2273C41.7199 23.2648 41.7012 23.3085 41.7012 23.3617C41.7012 23.4132 41.7199 23.4585 41.7574 23.496C41.7934 23.5335 41.8387 23.5507 41.8918 23.5523C41.9434 23.5523 41.9887 23.5335 42.0262 23.4976C42.0637 23.4601 42.0824 23.4148 42.0824 23.3632C42.0824 23.3101 42.0652 23.2648 42.0277 23.2273C41.9902 23.1914 41.9449 23.1726 41.8918 23.1726Z" fill="#111111"/>
<path d="M43.7971 23.1726C43.7439 23.1726 43.6986 23.1898 43.6627 23.2273C43.6252 23.2648 43.6064 23.3085 43.6064 23.3617C43.6064 23.4132 43.6252 23.4585 43.6611 23.496C43.6986 23.5335 43.7424 23.5507 43.7955 23.5523C43.8486 23.5523 43.8924 23.5335 43.9299 23.4976C43.9674 23.4601 43.9861 23.4148 43.9861 23.3632C43.9877 23.3101 43.9689 23.2648 43.9314 23.2273C43.8939 23.1914 43.8486 23.1726 43.7971 23.1726Z" fill="#111111"/>
<path d="M41.8918 21.2727C41.8402 21.2727 41.7949 21.2915 41.7574 21.329C41.7199 21.3665 41.7012 21.4102 41.7012 21.4633C41.7012 21.5149 41.7199 21.5602 41.7574 21.5977C41.7949 21.6352 41.8402 21.6524 41.8918 21.6524C41.9449 21.6524 41.9902 21.6352 42.0262 21.5977C42.0637 21.5602 42.0824 21.5149 42.0824 21.4633C42.0824 21.4102 42.0637 21.3665 42.0262 21.329C41.9902 21.2915 41.9449 21.2727 41.8918 21.2727Z" fill="#111111"/>
<path d="M43.7971 21.2727C43.7439 21.2727 43.6986 21.2915 43.6611 21.329C43.6252 21.3665 43.6064 21.4102 43.6064 21.4633C43.6064 21.5149 43.6252 21.5602 43.6611 21.5977C43.6986 21.6352 43.7439 21.6524 43.7971 21.6524C43.8486 21.6524 43.8939 21.6352 43.9314 21.5977C43.9689 21.5602 43.9861 21.5149 43.9861 21.4633C43.9861 21.4102 43.9689 21.3665 43.9314 21.329C43.8939 21.2915 43.8486 21.2727 43.7971 21.2727Z" fill="#111111"/>
<path d="M40.9752 24.1196C40.9627 24.118 40.9502 24.118 40.9377 24.1196C40.9048 24.1211 40.8752 24.1274 40.847 24.143C40.8189 24.1586 40.797 24.179 40.7783 24.2055C40.7611 24.2321 40.7502 24.2602 40.747 24.293C40.7439 24.3243 40.7486 24.354 40.7611 24.3836C40.7814 24.4321 40.8158 24.4649 40.8627 24.4852C40.8861 24.4946 40.9111 24.4993 40.9377 24.4993C40.9502 24.5008 40.9627 24.5008 40.9752 24.4993C41.0392 24.4868 41.083 24.4493 41.108 24.3883C41.1189 24.3649 41.1236 24.3399 41.1236 24.3133C41.1236 24.2758 41.1127 24.2399 41.0908 24.2086C41.0642 24.1633 41.0252 24.1336 40.9752 24.1196Z" fill="#111111"/>
<path d="M40.9752 22.2272C40.9627 22.2257 40.9502 22.2257 40.9377 22.2272C40.9111 22.2257 40.8861 22.2319 40.8627 22.2429C40.7861 22.2757 40.7471 22.3335 40.7471 22.4163C40.7471 22.5007 40.7861 22.5585 40.8627 22.5913C40.8861 22.6022 40.9111 22.6069 40.9377 22.6069C40.9502 22.6085 40.9627 22.6085 40.9752 22.6069C41.0752 22.5851 41.1252 22.5226 41.1252 22.421C41.1252 22.3194 41.0752 22.2569 40.9752 22.2351V22.2272Z" fill="#111111"/>
<path d="M41.8918 25.071C41.8402 25.071 41.7949 25.0898 41.7574 25.1257C41.7199 25.1632 41.7012 25.2085 41.7012 25.2601C41.7012 25.3132 41.7199 25.357 41.7574 25.3945C41.7934 25.432 41.8387 25.4507 41.8918 25.4507C41.9434 25.4507 41.9887 25.432 42.0262 25.396C42.0637 25.3585 42.0824 25.3148 42.0824 25.2617C42.0824 25.2085 42.0652 25.1648 42.0277 25.1273C41.9902 25.0898 41.9449 25.071 41.8918 25.071Z" fill="#111111"/>
<path d="M43.7971 25.071C43.7439 25.071 43.6986 25.0898 43.6627 25.1257C43.6252 25.1632 43.6064 25.2085 43.6064 25.2601C43.6064 25.3132 43.6252 25.357 43.6611 25.3945C43.6986 25.432 43.7424 25.4507 43.7955 25.4507C43.8486 25.4507 43.8924 25.432 43.9299 25.396C43.9674 25.3585 43.9861 25.3148 43.9861 25.2617C43.9877 25.2085 43.9689 25.1648 43.9314 25.1273C43.8939 25.0898 43.8486 25.071 43.7971 25.071Z" fill="#111111"/>
<path d="M39.0373 12.729C38.9842 12.729 38.9389 12.7478 38.9014 12.7837C38.8654 12.8212 38.8467 12.8665 38.8467 12.9181C38.8467 12.9712 38.8654 13.0165 38.9014 13.0524C38.9389 13.0899 38.9842 13.1087 39.0373 13.1087C39.0889 13.1087 39.1342 13.0899 39.1717 13.0524C39.2092 13.0165 39.2264 12.9712 39.2264 12.9181C39.2264 12.8665 39.2092 12.8212 39.1717 12.7837C39.1342 12.7478 39.0889 12.729 39.0373 12.729Z" fill="#111111"/>
<path d="M39.9893 11.7788C39.9362 11.7804 39.8925 11.7991 39.855 11.8366C39.819 11.8741 39.8003 11.9179 39.8018 11.971C39.8018 12.0226 39.8206 12.0679 39.8581 12.1038C39.8956 12.1413 39.9409 12.1585 39.9925 12.1585C40.0456 12.1585 40.0893 12.1397 40.1268 12.1038C40.1643 12.0663 40.1815 12.021 40.1815 11.9694C40.1815 11.9163 40.1628 11.871 40.1253 11.8335C40.0878 11.796 40.0425 11.7788 39.9893 11.7788Z" fill="#111111"/>
<path d="M39.9893 9.87891C39.9362 9.88047 39.8925 9.89922 39.855 9.93672C39.819 9.97422 39.8003 10.018 39.8018 10.0711C39.8018 10.1227 39.8206 10.1664 39.8581 10.2039C39.894 10.2398 39.9393 10.2586 39.9925 10.2586C40.044 10.2586 40.0893 10.2398 40.1253 10.2039C40.1628 10.1664 40.1815 10.1227 40.1815 10.0711C40.1831 10.018 40.1643 9.97109 40.1253 9.93359C40.0878 9.89609 40.0425 9.87891 39.9893 9.87891Z" fill="#111111"/>
<path d="M39.0378 16.5259C39.005 16.5259 38.9753 16.5337 38.9472 16.5493C38.9191 16.5649 38.8972 16.5853 38.8785 16.6118C38.8613 16.6384 38.8519 16.6665 38.8488 16.6993C38.8457 16.7306 38.8488 16.7603 38.8613 16.7899C38.8941 16.8665 38.9535 16.9056 39.0378 16.9056C39.1207 16.9056 39.18 16.8665 39.2128 16.7899C39.2222 16.7665 39.2285 16.7415 39.2269 16.7165C39.2285 16.6774 39.2175 16.6431 39.1941 16.6103C39.1566 16.5556 39.105 16.5274 39.0378 16.5259Z" fill="#111111"/>
<path d="M39.0373 14.6257C38.9842 14.6257 38.9389 14.6445 38.9014 14.682C38.8654 14.7195 38.8467 14.7632 38.8467 14.8164C38.8467 14.8679 38.8654 14.9132 38.9014 14.9507C38.9389 14.9867 38.9842 15.0054 39.0373 15.0054C39.0889 15.0054 39.1342 14.9867 39.1717 14.9507C39.2092 14.9132 39.2264 14.8679 39.2264 14.8164C39.2264 14.7632 39.2092 14.7195 39.1717 14.682C39.1342 14.6445 39.0889 14.6257 39.0373 14.6257Z" fill="#111111"/>
<path d="M38.0846 15.5774C38.033 15.5774 37.9877 15.5961 37.9502 15.6321C37.9127 15.6696 37.8955 15.7149 37.8955 15.7665C37.8955 15.8196 37.9127 15.8633 37.9502 15.9008C37.9877 15.9383 38.033 15.9571 38.0846 15.9571C38.1377 15.9571 38.183 15.9383 38.2205 15.9008C38.2564 15.8633 38.2752 15.8196 38.2752 15.7665C38.2752 15.7149 38.2564 15.6696 38.2205 15.6321C38.183 15.5961 38.1377 15.5774 38.0846 15.5774Z" fill="#111111"/>
<path d="M39.9895 15.5774C39.9363 15.5774 39.891 15.5961 39.8551 15.6321C39.8176 15.6696 39.7988 15.7149 39.7988 15.7665C39.7988 15.8196 39.8176 15.8633 39.8551 15.9008C39.891 15.9383 39.9363 15.9571 39.9895 15.9571C40.041 15.9571 40.0863 15.9383 40.1238 15.9008C40.1613 15.8633 40.1801 15.8196 40.1801 15.7665C40.1801 15.7149 40.1613 15.6696 40.1238 15.6321C40.0863 15.5961 40.041 15.5774 39.9895 15.5774Z" fill="#111111"/>
<path d="M38.0846 13.6772C38.033 13.6772 37.9877 13.696 37.9502 13.7335C37.9127 13.771 37.8955 13.8147 37.8955 13.8679C37.8955 13.921 37.9127 13.9647 37.9502 14.0022C37.9877 14.0397 38.033 14.0585 38.0846 14.0585C38.1377 14.0585 38.183 14.0397 38.2205 14.0022C38.2564 13.9647 38.2752 13.921 38.2752 13.8679C38.2752 13.8147 38.2564 13.771 38.2205 13.7335C38.183 13.696 38.1377 13.6772 38.0846 13.6772Z" fill="#111111"/>
<path d="M39.9895 13.6772C39.9363 13.6772 39.891 13.696 39.8551 13.7335C39.8176 13.771 39.7988 13.8147 39.7988 13.8679C39.7988 13.921 39.8176 13.9647 39.8551 14.0022C39.891 14.0397 39.9363 14.0585 39.9895 14.0585C40.041 14.0585 40.0863 14.0397 40.1238 14.0022C40.1613 13.9647 40.1801 13.921 40.1801 13.8679C40.1801 13.8147 40.1613 13.771 40.1238 13.7335C40.0863 13.696 40.041 13.6772 39.9895 13.6772Z" fill="#111111"/>
<path d="M37.2386 16.5587C37.2074 16.5368 37.1714 16.5259 37.1324 16.5259C37.1011 16.5259 37.0714 16.5337 37.0433 16.5493C37.0152 16.5649 36.9918 16.5853 36.9746 16.6118C36.9574 16.6384 36.9464 16.6665 36.9433 16.6993C36.9402 16.7306 36.9449 16.7603 36.9574 16.7899C36.9808 16.8446 37.0214 16.8806 37.0777 16.8978C37.1355 16.9149 37.1886 16.9071 37.2386 16.8743C37.2699 16.8524 37.2933 16.8243 37.3089 16.7899C37.3183 16.7665 37.323 16.7415 37.323 16.7165C37.323 16.6774 37.3121 16.6431 37.2902 16.6103C37.2777 16.5899 37.2605 16.5728 37.2386 16.5587Z" fill="#111111"/>
<path d="M37.2395 14.6603C37.2082 14.6384 37.1723 14.6274 37.1332 14.6274C37.102 14.6274 37.0723 14.6337 37.0457 14.6478C37.0176 14.6618 36.9942 14.6806 36.9754 14.7056C36.9567 14.7321 36.9457 14.7587 36.941 14.7899C36.9363 14.8212 36.9379 14.8509 36.9473 14.8806C36.9582 14.9103 36.9738 14.9353 36.9957 14.9571C37.0176 14.979 37.0442 14.9946 37.0738 15.004C37.1035 15.0134 37.1332 15.0149 37.1645 15.0103C37.1957 15.004 37.2223 14.9931 37.2473 14.9743C37.2723 14.9556 37.291 14.9321 37.3051 14.904C37.3192 14.8759 37.3254 14.8462 37.3238 14.8149C37.3238 14.7837 37.316 14.754 37.3004 14.7274C37.2863 14.7009 37.2645 14.6774 37.2395 14.6603Z" fill="#111111"/>
<path d="M39.0373 20.3242C38.9842 20.3242 38.9389 20.343 38.9014 20.3789C38.8654 20.4164 38.8467 20.4617 38.8467 20.5133C38.8467 20.5664 38.8654 20.6102 38.9014 20.6477C38.9389 20.6852 38.9842 20.7039 39.0373 20.7039C39.0889 20.7039 39.1342 20.6852 39.1717 20.6477C39.2092 20.6102 39.2264 20.5664 39.2264 20.5133C39.2264 20.4617 39.2092 20.4164 39.1717 20.3789C39.1342 20.343 39.0889 20.3242 39.0373 20.3242Z" fill="#111111"/>
<path d="M39.0373 18.4258C38.9842 18.4258 38.9389 18.443 38.9014 18.4805C38.8654 18.518 38.8467 18.5633 38.8467 18.6148C38.8467 18.668 38.8654 18.7117 38.9014 18.7492C38.9389 18.7867 38.9842 18.8055 39.0373 18.8055C39.0889 18.8055 39.1342 18.7867 39.1717 18.7492C39.2092 18.7117 39.2264 18.668 39.2264 18.6148C39.2264 18.5633 39.2092 18.518 39.1717 18.4805C39.1342 18.443 39.0889 18.4258 39.0373 18.4258Z" fill="#111111"/>
<path d="M38.0846 19.3726C38.033 19.3726 37.9877 19.3913 37.9502 19.4288C37.9127 19.4663 37.8955 19.5101 37.8955 19.5632C37.8955 19.6147 37.9127 19.6601 37.9502 19.6976C37.9877 19.7335 38.033 19.7522 38.0846 19.7522C38.1377 19.7522 38.183 19.7335 38.2205 19.6976C38.2564 19.6601 38.2752 19.6147 38.2752 19.5632C38.2752 19.5101 38.2564 19.4663 38.2205 19.4288C38.183 19.3913 38.1377 19.3726 38.0846 19.3726Z" fill="#111111"/>
<path d="M39.9895 19.3726C39.9363 19.3726 39.891 19.3913 39.8551 19.4288C39.8176 19.4663 39.7988 19.5101 39.7988 19.5632C39.7988 19.6147 39.8176 19.6601 39.8551 19.6976C39.891 19.7335 39.9363 19.7522 39.9895 19.7522C40.041 19.7522 40.0863 19.7335 40.1238 19.6976C40.1613 19.6601 40.1801 19.6147 40.1801 19.5632C40.1801 19.5101 40.1613 19.4663 40.1238 19.4288C40.0863 19.3913 40.041 19.3726 39.9895 19.3726Z" fill="#111111"/>
<path d="M38.0846 17.4758C38.033 17.4758 37.9877 17.4946 37.9502 17.5321C37.9127 17.568 37.8955 17.6133 37.8955 17.6649C37.8955 17.718 37.9127 17.7633 37.9502 17.7993C37.9877 17.8368 38.033 17.8555 38.0846 17.8555C38.1377 17.8555 38.183 17.8368 38.2205 17.7993C38.2564 17.7633 38.2752 17.718 38.2752 17.6649C38.2752 17.6133 38.2564 17.568 38.2205 17.5321C38.183 17.4946 38.1377 17.4758 38.0846 17.4758Z" fill="#111111"/>
<path d="M39.9895 17.4758C39.9363 17.4758 39.891 17.4946 39.8551 17.5321C39.8176 17.568 39.7988 17.6133 39.7988 17.6649C39.7988 17.718 39.8176 17.7633 39.8551 17.7993C39.891 17.8368 39.9363 17.8555 39.9895 17.8555C40.041 17.8555 40.0863 17.8368 40.1238 17.7993C40.1613 17.7633 40.1801 17.718 40.1801 17.6649C40.1801 17.6133 40.1613 17.568 40.1238 17.5321C40.0863 17.4946 40.041 17.4758 39.9895 17.4758Z" fill="#111111"/>
<path d="M37.2395 20.357C37.2082 20.3352 37.1723 20.3242 37.1332 20.3242C37.102 20.3242 37.0723 20.3305 37.0457 20.3445C37.0176 20.3586 36.9942 20.3773 36.9754 20.4023C36.9567 20.4273 36.9457 20.4555 36.941 20.4867C36.9363 20.5164 36.9379 20.5477 36.9473 20.5758C36.9582 20.6055 36.9738 20.632 36.9957 20.6539C37.0176 20.6758 37.0442 20.6914 37.0738 20.7008C37.1035 20.7086 37.1332 20.7117 37.1645 20.7055C37.1957 20.7008 37.2223 20.6883 37.2473 20.6695C37.2723 20.6508 37.291 20.6273 37.3051 20.5992C37.3192 20.5711 37.3254 20.543 37.3238 20.5117C37.3238 20.4805 37.316 20.4508 37.3004 20.4242C37.2863 20.3961 37.2645 20.3742 37.2395 20.357Z" fill="#111111"/>
<path d="M37.2395 18.4585C37.2082 18.4351 37.1723 18.4242 37.1332 18.4257C37.102 18.4242 37.0723 18.432 37.0457 18.446C37.0176 18.4585 36.9942 18.4789 36.9754 18.5039C36.9567 18.5289 36.9457 18.557 36.941 18.5867C36.9363 18.6179 36.9379 18.6476 36.9473 18.6773C36.9582 18.707 36.9738 18.7335 36.9957 18.7554C37.0176 18.7757 37.0442 18.7914 37.0738 18.8007C37.1035 18.8101 37.1332 18.8132 37.1645 18.807C37.1957 18.8023 37.2223 18.7898 37.2473 18.771C37.2723 18.7523 37.291 18.7289 37.3051 18.7007C37.3192 18.6726 37.3254 18.6429 37.3238 18.6117C37.3238 18.582 37.316 18.5523 37.3004 18.5242C37.2863 18.4976 37.2645 18.4757 37.2395 18.4585Z" fill="#111111"/>
<path d="M39.0379 24.1196C38.9691 24.1212 38.916 24.1493 38.8785 24.204C38.841 24.2618 38.8347 24.3212 38.8597 24.3837C38.8941 24.4603 38.9519 24.4993 39.0363 24.4993C39.1191 24.4993 39.1785 24.4603 39.2113 24.3837C39.2222 24.3603 39.2269 24.3353 39.2269 24.3103C39.2269 24.2712 39.216 24.2368 39.1925 24.204C39.1566 24.1493 39.1035 24.1212 39.0379 24.1196Z" fill="#111111"/>
<path d="M39.0375 22.2227C38.9844 22.2227 38.9391 22.2414 38.9 22.2773C38.8625 22.3148 38.8438 22.3602 38.8438 22.4133C38.8438 22.4664 38.8625 22.5117 38.9 22.5492C38.9375 22.5867 38.9828 22.6055 39.0359 22.6055C39.0891 22.6055 39.1344 22.5867 39.1719 22.5477C39.2094 22.5102 39.2281 22.4648 39.2266 22.4133C39.2266 22.3602 39.2094 22.3148 39.1719 22.2789C39.1344 22.2414 39.0891 22.2227 39.0375 22.2227Z" fill="#111111"/>
<path d="M38.0846 23.1726C38.033 23.1726 37.9877 23.1898 37.9502 23.2273C37.9143 23.2648 37.8955 23.3085 37.8955 23.3617C37.8955 23.4132 37.9127 23.4585 37.9502 23.496C37.9877 23.5335 38.0314 23.5507 38.0846 23.5523C38.1361 23.5523 38.1814 23.5335 38.2189 23.4976C38.2564 23.4601 38.2752 23.4148 38.2752 23.3632C38.2768 23.3101 38.258 23.2648 38.2205 23.2273C38.183 23.1914 38.1377 23.1726 38.0846 23.1726Z" fill="#111111"/>
<path d="M39.9895 23.1726C39.9363 23.1726 39.8926 23.1898 39.8551 23.2273C39.8176 23.2648 39.7988 23.3085 39.7988 23.3617C39.7988 23.4132 39.8176 23.4585 39.8535 23.496C39.891 23.5335 39.9363 23.5507 39.9879 23.5523C40.041 23.5523 40.0863 23.5335 40.1238 23.4976C40.1598 23.4601 40.1785 23.4148 40.1801 23.3632C40.1801 23.3101 40.1613 23.2648 40.1238 23.2273C40.0863 23.1914 40.0426 23.1726 39.9895 23.1726Z" fill="#111111"/>
<path d="M38.0846 21.2727C38.033 21.2727 37.9877 21.2915 37.9502 21.329C37.9127 21.3665 37.8955 21.4102 37.8955 21.4633C37.8955 21.5149 37.9127 21.5602 37.9502 21.5977C37.9877 21.6352 38.033 21.6524 38.0846 21.6524C38.1377 21.6524 38.183 21.6352 38.2205 21.5977C38.2564 21.5602 38.2752 21.5149 38.2752 21.4633C38.2752 21.4102 38.2564 21.3665 38.2205 21.329C38.183 21.2915 38.1377 21.2727 38.0846 21.2727Z" fill="#111111"/>
<path d="M39.9895 21.2727C39.9363 21.2727 39.891 21.2915 39.8551 21.329C39.8176 21.3665 39.7988 21.4102 39.7988 21.4633C39.7988 21.5149 39.8176 21.5602 39.8551 21.5977C39.891 21.6352 39.9363 21.6524 39.9895 21.6524C40.041 21.6524 40.0863 21.6352 40.1238 21.5977C40.1613 21.5602 40.1801 21.5149 40.1801 21.4633C40.1801 21.4102 40.1613 21.3665 40.1238 21.329C40.0863 21.2915 40.041 21.2727 39.9895 21.2727Z" fill="#111111"/>
<path d="M37.2389 24.154C37.1951 24.1243 37.1483 24.115 37.0951 24.1243C37.0436 24.1353 37.003 24.1618 36.9748 24.2056C36.9373 24.2634 36.9311 24.3228 36.9576 24.3853C36.9811 24.44 37.0217 24.4759 37.078 24.4931C37.1358 24.5103 37.1889 24.5025 37.2389 24.4697C37.2701 24.4478 37.2936 24.4197 37.3092 24.3853C37.3186 24.3618 37.3233 24.3368 37.3233 24.3118C37.3233 24.2728 37.3123 24.2384 37.2905 24.2056C37.2764 24.1853 37.2592 24.1681 37.2389 24.154Z" fill="#111111"/>
<path d="M37.2393 22.2555C37.2064 22.2336 37.1721 22.2227 37.133 22.2227C37.083 22.2273 37.0424 22.2477 37.008 22.2836C36.9752 22.3195 36.958 22.3633 36.958 22.4133C36.958 22.4633 36.9752 22.5055 37.008 22.543C37.0424 22.5789 37.083 22.5992 37.133 22.6039C37.1721 22.6039 37.2064 22.593 37.2393 22.5711C37.2658 22.5523 37.2861 22.5305 37.3002 22.5023C37.3158 22.4742 37.3236 22.4445 37.3236 22.4133C37.3236 22.382 37.3158 22.3523 37.3002 22.3242C37.2861 22.2961 37.2658 22.2727 37.2393 22.2555Z" fill="#111111"/>
<path d="M38.0846 25.071C38.033 25.071 37.9877 25.0898 37.9502 25.1257C37.9143 25.1632 37.8955 25.2085 37.8955 25.2601C37.8955 25.3132 37.9127 25.357 37.9502 25.3945C37.9877 25.432 38.0314 25.4507 38.0846 25.4507C38.1361 25.4507 38.1814 25.432 38.2189 25.396C38.2564 25.3585 38.2752 25.3148 38.2752 25.2617C38.2768 25.2085 38.258 25.1648 38.2205 25.1273C38.183 25.0898 38.1377 25.071 38.0846 25.071Z" fill="#111111"/>
<path d="M39.9895 25.071C39.9363 25.071 39.8926 25.0898 39.8551 25.1257C39.8176 25.1632 39.7988 25.2085 39.7988 25.2601C39.7988 25.3132 39.8176 25.357 39.8535 25.3945C39.891 25.432 39.9363 25.4507 39.9879 25.4507C40.041 25.4507 40.0863 25.432 40.1238 25.396C40.1598 25.3585 40.1785 25.3148 40.1801 25.2617C40.1801 25.2085 40.1613 25.1648 40.1238 25.1273C40.0863 25.0898 40.0426 25.071 39.9895 25.071Z" fill="#111111"/>
<path d="M35.2297 20.3242C35.1766 20.3242 35.1312 20.343 35.0953 20.3789C35.0578 20.4164 35.0391 20.4617 35.0391 20.5133C35.0391 20.5664 35.0578 20.6102 35.0953 20.6477C35.1312 20.6852 35.1766 20.7039 35.2297 20.7039C35.2812 20.7039 35.3266 20.6852 35.3641 20.6477C35.4016 20.6102 35.4203 20.5664 35.4203 20.5133C35.4203 20.4617 35.4016 20.4164 35.3641 20.3789C35.3266 20.343 35.2812 20.3242 35.2297 20.3242Z" fill="#111111"/>
<path d="M35.2297 18.4258C35.1766 18.4258 35.1312 18.443 35.0953 18.4805C35.0578 18.518 35.0391 18.5633 35.0391 18.6148C35.0391 18.668 35.0578 18.7117 35.0953 18.7492C35.1312 18.7867 35.1766 18.8055 35.2297 18.8055C35.2812 18.8055 35.3266 18.7867 35.3641 18.7492C35.4016 18.7117 35.4203 18.668 35.4203 18.6148C35.4203 18.5633 35.4016 18.518 35.3641 18.4805C35.3266 18.443 35.2812 18.4258 35.2297 18.4258Z" fill="#111111"/>
<path d="M34.2785 19.3726C34.2254 19.3726 34.1801 19.3913 34.1426 19.4288C34.1066 19.4663 34.0879 19.5101 34.0879 19.5632C34.0879 19.6147 34.1066 19.6601 34.1426 19.6976C34.1801 19.7335 34.2254 19.7522 34.2785 19.7522C34.3301 19.7522 34.3754 19.7335 34.4129 19.6976C34.4504 19.6601 34.4676 19.6147 34.4676 19.5632C34.4676 19.5101 34.4504 19.4663 34.4129 19.4288C34.3754 19.3913 34.3301 19.3726 34.2785 19.3726Z" fill="#111111"/>
<path d="M36.1809 19.3726C36.1277 19.3726 36.084 19.3913 36.0465 19.4288C36.009 19.4663 35.9902 19.5101 35.9902 19.5632C35.9902 19.6147 36.009 19.6601 36.0465 19.6976C36.084 19.7335 36.1277 19.7522 36.1809 19.7522C36.234 19.7522 36.2777 19.7335 36.3152 19.6976C36.3527 19.6601 36.3715 19.6147 36.3715 19.5632C36.3715 19.5101 36.3527 19.4663 36.3152 19.4288C36.2777 19.3913 36.234 19.3726 36.1809 19.3726Z" fill="#111111"/>
<path d="M36.1809 17.4758C36.1277 17.4758 36.084 17.4946 36.0465 17.5321C36.009 17.568 35.9902 17.6133 35.9902 17.6649C35.9902 17.718 36.009 17.7633 36.0465 17.7993C36.084 17.8368 36.1277 17.8555 36.1809 17.8555C36.234 17.8555 36.2777 17.8368 36.3152 17.7993C36.3527 17.7633 36.3715 17.718 36.3715 17.6649C36.3715 17.6133 36.3527 17.568 36.3152 17.5321C36.2777 17.4946 36.234 17.4758 36.1809 17.4758Z" fill="#111111"/>
<path d="M35.2292 24.1196C35.1605 24.1212 35.1089 24.1493 35.0699 24.204C35.0324 24.2618 35.0277 24.3212 35.0527 24.3837C35.087 24.4603 35.1449 24.4993 35.2292 24.4993C35.312 24.4993 35.3714 24.4603 35.4042 24.3837C35.4152 24.3603 35.4199 24.3353 35.4199 24.3103C35.4199 24.2712 35.4089 24.2368 35.387 24.204C35.3495 24.1493 35.2964 24.1212 35.2292 24.1196Z" fill="#111111"/>
<path d="M35.2299 22.2227C35.1768 22.2227 35.1314 22.2414 35.0939 22.2773C35.0549 22.3148 35.0361 22.3602 35.0361 22.4133C35.0361 22.4664 35.0549 22.5117 35.0924 22.5492C35.1299 22.5867 35.1752 22.6055 35.2283 22.6055C35.2814 22.6055 35.3268 22.5867 35.3643 22.5477C35.4018 22.5102 35.4205 22.4648 35.4205 22.4133C35.4205 22.3602 35.4018 22.3148 35.3643 22.2789C35.3268 22.2414 35.2814 22.2227 35.2299 22.2227Z" fill="#111111"/>
<path d="M34.2785 23.1726C34.2254 23.1726 34.1801 23.1898 34.1441 23.2273C34.1066 23.2648 34.0879 23.3085 34.0879 23.3617C34.0879 23.4132 34.1066 23.4585 34.1426 23.496C34.1801 23.5335 34.2238 23.5507 34.277 23.5523C34.3301 23.5523 34.3738 23.5335 34.4113 23.4976C34.4488 23.4601 34.4676 23.4148 34.4676 23.3632C34.4691 23.3101 34.4504 23.2648 34.4129 23.2273C34.3754 23.1914 34.3301 23.1726 34.2785 23.1726Z" fill="#111111"/>
<path d="M36.1809 23.1726C36.1277 23.1726 36.084 23.1898 36.0465 23.2273C36.009 23.2648 35.9902 23.3085 35.9902 23.3617C35.9902 23.4132 36.009 23.4585 36.0465 23.496C36.0824 23.5335 36.1277 23.5507 36.1793 23.5523C36.2324 23.5523 36.2777 23.5335 36.3152 23.4976C36.3527 23.4601 36.3715 23.4148 36.3715 23.3632C36.3715 23.3101 36.3527 23.2648 36.3152 23.2273C36.2793 23.1914 36.234 23.1726 36.1809 23.1726Z" fill="#111111"/>
<path d="M34.2785 21.2727C34.2254 21.2727 34.1801 21.2915 34.1426 21.329C34.1066 21.3665 34.0879 21.4102 34.0879 21.4633C34.0879 21.5149 34.1066 21.5602 34.1426 21.5977C34.1801 21.6352 34.2254 21.6524 34.2785 21.6524C34.3301 21.6524 34.3754 21.6352 34.4129 21.5977C34.4504 21.5602 34.4676 21.5149 34.4676 21.4633C34.4676 21.4102 34.4504 21.3665 34.4129 21.329C34.3754 21.2915 34.3301 21.2727 34.2785 21.2727Z" fill="#111111"/>
<path d="M36.1809 21.2727C36.1277 21.2727 36.084 21.2915 36.0465 21.329C36.009 21.3665 35.9902 21.4102 35.9902 21.4633C35.9902 21.5149 36.009 21.5602 36.0465 21.5977C36.084 21.6352 36.1277 21.6524 36.1809 21.6524C36.234 21.6524 36.2777 21.6352 36.3152 21.5977C36.3527 21.5602 36.3715 21.5149 36.3715 21.4633C36.3715 21.4102 36.3527 21.3665 36.3152 21.329C36.2777 21.2915 36.234 21.2727 36.1809 21.2727Z" fill="#111111"/>
<path d="M33.3638 24.1196C33.3513 24.118 33.3388 24.118 33.3248 24.1196C33.2935 24.1211 33.2638 24.1274 33.2357 24.143C33.2076 24.1586 33.1857 24.179 33.167 24.2055C33.1498 24.2321 33.1388 24.2602 33.1357 24.293C33.1326 24.3243 33.1373 24.354 33.1498 24.3836C33.1701 24.4321 33.2045 24.4649 33.2513 24.4852C33.2748 24.4946 33.2998 24.4993 33.3248 24.4993C33.3388 24.5008 33.3513 24.5008 33.3638 24.4993C33.4279 24.4852 33.4716 24.4477 33.4966 24.3883C33.506 24.3649 33.5107 24.3399 33.5107 24.3133C33.5107 24.2758 33.4998 24.2399 33.4779 24.2086C33.4513 24.1633 33.4138 24.1336 33.3638 24.1196Z" fill="#111111"/>
<path d="M33.3639 22.2272C33.3514 22.2257 33.3389 22.2257 33.3248 22.2272C33.2998 22.2257 33.2748 22.2319 33.2514 22.2429C33.1748 22.2757 33.1357 22.3335 33.1357 22.4163C33.1357 22.5007 33.1748 22.5585 33.2514 22.5913C33.2748 22.6022 33.2998 22.6069 33.3248 22.6069C33.3389 22.6085 33.3514 22.6085 33.3639 22.6069C33.4639 22.5851 33.5139 22.5226 33.5139 22.421C33.5139 22.3194 33.4639 22.2569 33.3639 22.2351V22.2272Z" fill="#111111"/>
<path d="M34.2785 25.071C34.2254 25.071 34.1801 25.0898 34.1441 25.1257C34.1066 25.1632 34.0879 25.2085 34.0879 25.2601C34.0879 25.3132 34.1066 25.357 34.1426 25.3945C34.1801 25.432 34.2238 25.4507 34.277 25.4507C34.3301 25.4507 34.3738 25.432 34.4113 25.396C34.4488 25.3585 34.4676 25.3148 34.4676 25.2617C34.4691 25.2085 34.4504 25.1648 34.4129 25.1273C34.3754 25.0898 34.3301 25.071 34.2785 25.071Z" fill="#111111"/>
<path d="M36.1809 25.071C36.1277 25.071 36.084 25.0898 36.0465 25.1257C36.009 25.1632 35.9902 25.2085 35.9902 25.2601C35.9902 25.3132 36.009 25.357 36.0465 25.3945C36.0824 25.432 36.1277 25.4507 36.1793 25.4507C36.2324 25.4507 36.2777 25.432 36.3152 25.396C36.3527 25.3585 36.3715 25.3148 36.3715 25.2617C36.3715 25.2085 36.3527 25.1648 36.3152 25.1273C36.2793 25.0898 36.234 25.071 36.1809 25.071Z" fill="#111111"/>
<path d="M32.3732 23.1726C32.3217 23.1726 32.2764 23.1898 32.2389 23.2273C32.2014 23.2648 32.1826 23.3085 32.1826 23.3617C32.1826 23.4132 32.2014 23.4585 32.2389 23.496C32.2748 23.5335 32.3201 23.5507 32.3732 23.5523C32.4248 23.5523 32.4701 23.5335 32.5076 23.4976C32.5451 23.4601 32.5639 23.4148 32.5639 23.3632C32.5639 23.3101 32.5467 23.2648 32.5092 23.2273C32.4717 23.1914 32.4264 23.1726 32.3732 23.1726Z" fill="#111111"/>
<path d="M32.3732 25.071C32.3217 25.071 32.2764 25.0898 32.2389 25.1257C32.2014 25.1632 32.1826 25.2085 32.1826 25.2601C32.1826 25.3132 32.2014 25.357 32.2389 25.3945C32.2748 25.432 32.3201 25.4507 32.3732 25.4507C32.4248 25.4507 32.4701 25.432 32.5076 25.396C32.5451 25.3585 32.5639 25.3148 32.5639 25.2617C32.5639 25.2085 32.5467 25.1648 32.5092 25.1273C32.4717 25.0898 32.4264 25.071 32.3732 25.071Z" fill="#111111"/>
</svg>
