<svg width="60" height="79" viewBox="0 0 60 79" fill="none" xmlns="http://www.w3.org/2000/svg">
<path d="M59.9837 39.2749C59.9857 39.2688 59.9857 39.2627 59.9837 39.2565C59.9939 39.2239 59.998 39.1932 60 39.1585C59.998 39.1258 59.9939 39.0952 59.9837 39.0625C59.9857 39.0564 59.9857 39.0503 59.9837 39.0441C59.9734 39.0135 59.9592 38.9849 59.9408 38.9583L30.2717 0.124592L30.2614 0.114379C30.2492 0.100082 30.2349 0.0857842 30.2206 0.0755719C30.1573 0.0245094 30.0878 0 30.0082 0C29.9285 0 29.857 0.0245094 29.7958 0.0755719C29.7815 0.0857842 29.7672 0.100082 29.7549 0.114379L29.7426 0.124592L0.0694444 38.9522C0.0490194 38.9788 0.0347221 39.0074 0.0245098 39.038C0.0245098 39.0441 0.0245098 39.0503 0.0245098 39.0564C0.0163399 39.087 0.0102124 39.1197 0.0102124 39.1524H0C0 39.1851 0.00612745 39.2177 0.0142974 39.2504C0.0142974 39.2565 0.0142974 39.2627 0.0142974 39.2688C0.0245097 39.2994 0.0388069 39.328 0.059232 39.3525L29.7202 78.1802C29.7243 78.1842 29.7263 78.1883 29.7324 78.1924L29.7631 78.2251L29.7855 78.2435C29.7978 78.2537 29.8101 78.2619 29.8243 78.268L29.8468 78.2802L29.8958 78.2986H29.9163C29.9653 78.3109 30.0143 78.3109 30.0613 78.2986H30.0817L30.1307 78.2802L30.1532 78.268C30.1675 78.2619 30.1797 78.2537 30.192 78.2435L30.2145 78.2251L30.2471 78.1924C30.2512 78.1883 30.2553 78.1842 30.2594 78.1802L59.9203 39.3525C59.9449 39.3301 59.9673 39.3056 59.9837 39.2749ZM30.3391 30.9702H52.9841L56.2459 35.2369H30.3391V30.9702ZM30.3391 30.29V26.0233H49.2034L52.4632 30.29H30.3391ZM30.3391 25.3431V21.0723H45.4228L48.6846 25.3411L30.3391 25.3431ZM30.3391 20.3922V16.1275H41.6381L44.902 20.3922H30.3391ZM30.3391 15.4453V11.1785H37.8595L41.1193 15.4473L30.3391 15.4453ZM30.3391 10.4963V6.22958H34.0768L37.3427 10.4984L30.3391 10.4963ZM30.3391 5.54739V1.33578L33.558 5.54943L30.3391 5.54739ZM29.6609 38.8195H1.02533L29.6609 1.33578V38.8195ZM30.3391 39.4996H58.9828L30.3391 76.9833V39.4996ZM30.3391 38.8195V35.9171H56.7647L58.9828 38.8195H30.3391Z" fill="#111111"/>
</svg>
